# 3ds Max Wavefront OBJ Exporter v0.97b - (c)2007 guruware
# File Created: 08.12.2016 20:55:34

#
# object Capsule001
#

v  -1.7407 3.3084 1.7250
v  -1.6767 3.2972 1.1751
v  -1.6469 3.5706 1.2464
v  -1.6608 3.7771 1.4412
v  -1.7145 3.8612 1.7073
v  -1.7937 3.8005 1.9733
v  -1.8773 3.6112 2.1681
v  -1.9427 3.3440 2.2394
v  -1.9725 3.0705 2.1681
v  -1.9586 2.8641 1.9733
v  -1.9049 2.7799 1.7073
v  -1.8257 2.8406 1.4412
v  -1.7421 3.0300 1.2464
v  -1.7551 3.3110 0.6272
v  -1.6975 3.8393 0.7649
v  -1.7242 4.2381 1.1412
v  -1.8281 4.4007 1.6551
v  -1.9811 4.2834 2.1691
v  -2.1425 3.9176 2.5454
v  -2.2689 3.4014 2.6831
v  -2.3264 2.8731 2.5454
v  -2.2997 2.4743 2.1691
v  -2.1959 2.3117 1.6551
v  -2.0428 2.4290 1.1412
v  -1.8815 2.7948 0.7649
v  -1.9705 3.3489 0.1185
v  -1.8891 4.0960 0.3132
v  -1.9268 4.6601 0.8454
v  -2.0736 4.8900 1.5722
v  -2.2901 4.7241 2.2991
v  -2.5183 4.2068 2.8312
v  -2.6970 3.4768 3.0260
v  -2.7784 2.7297 2.8312
v  -2.7406 2.1656 2.2991
v  -2.5938 1.9358 1.5722
v  -2.3774 2.1017 0.8454
v  -2.1492 2.6189 0.3132
v  -2.3081 3.4084 -0.3163
v  -2.2085 4.3234 -0.0778
v  -2.2547 5.0142 0.5739
v  -2.4345 5.2958 1.4642
v  -2.6997 5.0926 2.3544
v  -2.9791 4.4591 3.0061
v  -3.1980 3.5650 3.2447
v  -3.2977 2.6500 3.0061
v  -3.2514 1.9592 2.3544
v  -3.0716 1.6776 1.4642
v  -2.8065 1.8808 0.5739
v  -2.5270 2.5143 -0.0778
v  -2.7452 3.4853 -0.6475
v  -2.6340 4.5059 -0.3814
v  -2.6856 5.2764 0.3454
v  -2.8861 5.5905 1.3384
v  -3.1819 5.3638 2.3313
v  -3.4936 4.6573 3.0582
v  -3.7377 3.6601 3.3242
v  -3.8489 2.6395 3.0582
v  -3.7973 1.8689 2.3313
v  -3.5967 1.5549 1.3384
v  -3.3010 1.7816 0.3454
v  -2.9893 2.4881 -0.3814
v  -3.2517 3.5745 -0.8526
v  -3.1366 4.6311 -0.5771
v  -3.1900 5.4288 0.1754
v  -3.3976 5.7539 1.2034
v  -3.7038 5.5193 2.2313
v  -4.0265 4.7878 2.9838
v  -4.2793 3.7554 3.2593
v  -4.3943 2.6988 2.9838
v  -4.3409 1.9011 2.2313
v  -4.1333 1.5760 1.2034
v  -3.8272 1.8107 0.1754
v  -3.5045 2.5421 -0.5771
v  -5.8974 4.0404 -1.5342
v  -5.7824 5.0970 -1.2588
v  -5.8358 5.8947 -0.5063
v  -6.0434 6.2198 0.5217
v  -6.3496 5.9852 1.5496
v  -6.6722 5.2537 2.3022
v  -6.9250 4.2213 2.5776
v  -7.0401 3.1647 2.3022
v  -6.9867 2.3670 1.5496
v  -6.7791 2.0419 0.5217
v  -6.4729 2.2765 -0.5063
v  -6.1502 3.0080 -1.2588
v  -6.4390 4.1357 -1.5992
v  -6.3278 5.1563 -1.3332
v  -6.3794 5.9269 -0.6063
v  -6.5800 6.2409 0.3867
v  -6.8757 6.0143 1.3796
v  -7.1874 5.3077 2.1065
v  -7.4315 4.3105 2.3725
v  -7.5427 3.2899 2.1065
v  -7.4911 2.5194 1.3796
v  -7.2906 2.2054 0.3867
v  -6.9948 2.4320 -0.6063
v  -6.6831 3.1386 -1.3332
v  -6.9787 4.2308 -1.5196
v  -6.8790 5.1458 -1.2811
v  -6.9253 5.8367 -0.6294
v  -7.1051 6.1182 0.2608
v  -7.3702 5.9150 1.1511
v  -7.6497 5.2815 1.8028
v  -7.8686 4.3875 2.0413
v  -7.9682 3.4724 1.8028
v  -7.9220 2.7816 1.1511
v  -7.7422 2.5000 0.2608
v  -7.4770 2.7032 -0.6294
v  -7.1976 3.3367 -1.2811
v  -7.4797 4.3190 -1.3010
v  -7.3983 5.0661 -1.1062
v  -7.4361 5.6302 -0.5741
v  -7.5829 5.8601 0.1528
v  -7.7993 5.6942 0.8797
v  -8.0275 5.1769 1.4118
v  -8.2062 4.4469 1.6066
v  -8.2876 3.6998 1.4118
v  -8.2499 3.1357 0.8797
v  -8.1031 2.9059 0.1528
v  -7.8866 3.0718 -0.5741
v  -7.6584 3.5890 -1.1062
v  -7.9078 4.3944 -0.9581
v  -7.8503 4.9227 -0.8204
v  -7.8770 5.3215 -0.4441
v  -7.9808 5.4841 0.0699
v  -8.1339 5.3668 0.5839
v  -8.2952 5.0010 0.9601
v  -8.4216 4.4849 1.0979
v  -8.4792 3.9566 0.9601
v  -8.4525 3.5577 0.5839
v  -8.3486 3.3952 0.0699
v  -8.1956 3.5125 -0.4441
v  -8.0342 3.8782 -0.8204
v  -8.2340 4.4518 -0.5143
v  -8.2042 4.7253 -0.4430
v  -8.2181 4.9318 -0.2483
v  -8.2718 5.0159 0.0178
v  -8.3510 4.9552 0.2838
v  -8.4346 4.7659 0.4786
v  -8.5000 4.4987 0.5499
v  -8.5298 4.2252 0.4786
v  -8.5159 4.0187 0.2838
v  -8.4622 3.9346 0.0178
v  -8.3830 3.9953 -0.2483
v  -8.2994 4.1846 -0.4430
v  -8.4360 4.4874 0.0000
# 146 vertices

vn 0.9546 -0.1681 0.2459
vn 0.9843 -0.1733 -0.0341
vn 0.9994 -0.0344 0.0021
vn 0.9924 0.0705 0.1010
vn 0.9651 0.1132 0.2362
vn 0.9248 0.0824 0.3713
vn 0.8824 -0.0138 0.4703
vn 0.8492 -0.1495 0.5065
vn 0.8340 -0.2884 0.4703
vn 0.8411 -0.3933 0.3713
vn 0.8684 -0.4361 0.2362
vn 0.9086 -0.4052 0.1010
vn 0.9510 -0.3090 0.0021
vn 0.9427 -0.1660 -0.2894
vn 0.9707 0.0910 -0.2224
vn 0.9577 0.2850 -0.0393
vn 0.9072 0.3641 0.2107
vn 0.8327 0.3070 0.4607
vn 0.7543 0.1291 0.6438
vn 0.6928 -0.1220 0.7108
vn 0.6648 -0.3790 0.6438
vn 0.6778 -0.5730 0.4607
vn 0.7283 -0.6521 0.2107
vn 0.8027 -0.5950 -0.0393
vn 0.8812 -0.4171 -0.2224
vn 0.8387 -0.1477 -0.5243
vn 0.8776 0.2098 -0.4311
vn 0.8595 0.4797 -0.1765
vn 0.7893 0.5897 0.1713
vn 0.6857 0.5103 0.5191
vn 0.5765 0.2628 0.7737
vn 0.4910 -0.0865 0.8669
vn 0.4521 -0.4439 0.7737
vn 0.4701 -0.7138 0.5191
vn 0.5404 -0.8238 0.1713
vn 0.6440 -0.7444 -0.1765
vn 0.7531 -0.4969 -0.4311
vn 0.6796 -0.1197 -0.7237
vn 0.7269 0.3143 -0.6106
vn 0.7050 0.6420 -0.3015
vn 0.6197 0.7755 0.1207
vn 0.4939 0.6791 0.5430
vn 0.3614 0.3787 0.8521
vn 0.2576 -0.0454 0.9652
vn 0.2103 -0.4793 0.8521
vn 0.2322 -0.8070 0.5430
vn 0.3175 -0.9405 0.1207
vn 0.4433 -0.8442 -0.3015
vn 0.5758 -0.5437 -0.6106
vn 0.4764 -0.0839 -0.8752
vn 0.5289 0.3980 -0.7496
vn 0.5045 0.7618 -0.4064
vn 0.4098 0.9100 0.0624
vn 0.2702 0.8030 0.5312
vn 0.1230 0.4694 0.8744
vn 0.0078 -0.0014 1.0000
vn -0.0447 -0.4832 0.8744
vn -0.0203 -0.8470 0.5312
vn 0.0743 -0.9953 0.0624
vn 0.2140 -0.8883 -0.4064
vn 0.3611 -0.5547 -0.7496
vn 0.3035 -0.0534 -0.9513
vn 0.3576 0.4437 -0.8217
vn 0.3325 0.8190 -0.4677
vn 0.2348 0.9719 0.0159
vn 0.0908 0.8615 0.4995
vn -0.0610 0.5174 0.8536
vn -0.1799 0.0317 0.9832
vn -0.2341 -0.4654 0.8536
vn -0.2090 -0.8407 0.4995
vn -0.1113 -0.9937 0.0159
vn 0.0328 -0.8833 -0.4677
vn 0.1846 -0.5391 -0.8217
vn 0.1799 -0.0317 -0.9832
vn 0.2341 0.4654 -0.8536
vn 0.2090 0.8407 -0.4995
vn 0.1113 0.9937 -0.0159
vn -0.0328 0.8833 0.4677
vn -0.1846 0.5391 0.8217
vn -0.3035 0.0534 0.9513
vn -0.3576 -0.4437 0.8217
vn -0.3325 -0.8190 0.4677
vn -0.2348 -0.9719 -0.0159
vn -0.0908 -0.8615 -0.4995
vn 0.0610 -0.5174 -0.8536
vn -0.0078 0.0014 -1.0000
vn 0.0447 0.4832 -0.8744
vn 0.0203 0.8470 -0.5312
vn -0.0743 0.9953 -0.0624
vn -0.2140 0.8883 0.4064
vn -0.3611 0.5547 0.7496
vn -0.4764 0.0839 0.8752
vn -0.5289 -0.3980 0.7496
vn -0.5045 -0.7618 0.4064
vn -0.4098 -0.9100 -0.0624
vn -0.2702 -0.8030 -0.5312
vn -0.1230 -0.4694 -0.8744
vn -0.2576 0.0454 -0.9652
vn -0.2103 0.4793 -0.8521
vn -0.2322 0.8070 -0.5430
vn -0.3175 0.9405 -0.1207
vn -0.4433 0.8442 0.3015
vn -0.5758 0.5437 0.6106
vn -0.6796 0.1197 0.7237
vn -0.7269 -0.3143 0.6106
vn -0.7050 -0.6420 0.3015
vn -0.6197 -0.7755 -0.1207
vn -0.4939 -0.6791 -0.5430
vn -0.3614 -0.3787 -0.8521
vn -0.4910 0.0865 -0.8669
vn -0.4521 0.4439 -0.7737
vn -0.4701 0.7138 -0.5191
vn -0.5404 0.8238 -0.1713
vn -0.6440 0.7444 0.1765
vn -0.7531 0.4969 0.4311
vn -0.8387 0.1477 0.5243
vn -0.8776 -0.2098 0.4311
vn -0.8595 -0.4797 0.1765
vn -0.7893 -0.5897 -0.1713
vn -0.6857 -0.5103 -0.5191
vn -0.5765 -0.2628 -0.7737
vn -0.6928 0.1220 -0.7108
vn -0.6648 0.3790 -0.6438
vn -0.6778 0.5730 -0.4607
vn -0.7283 0.6521 -0.2107
vn -0.8027 0.5950 0.0393
vn -0.8812 0.4171 0.2224
vn -0.9427 0.1660 0.2894
vn -0.9707 -0.0910 0.2224
vn -0.9577 -0.2850 0.0393
vn -0.9072 -0.3641 -0.2107
vn -0.8327 -0.3070 -0.4607
vn -0.7543 -0.1291 -0.6438
vn -0.8492 0.1495 -0.5065
vn -0.8340 0.2884 -0.4703
vn -0.8411 0.3933 -0.3713
vn -0.8684 0.4361 -0.2362
vn -0.9086 0.4052 -0.1010
vn -0.9510 0.3090 -0.0021
vn -0.9843 0.1733 0.0341
vn -0.9994 0.0344 -0.0021
vn -0.9924 -0.0705 -0.1010
vn -0.9651 -0.1132 -0.2362
vn -0.9248 -0.0824 -0.3713
vn -0.8824 0.0138 -0.4703
vn -0.9546 0.1681 -0.2459
# 146 vertex normals

vt 0.2402 0.7459 0.0000
vt 0.2685 0.7469 0.0000
vt 0.2642 0.7609 0.0000
vt 0.2534 0.7709 0.0000
vt 0.2391 0.7742 0.0000
vt 0.2251 0.7699 0.0000
vt 0.2152 0.7591 0.0000
vt 0.2119 0.7448 0.0000
vt 0.2162 0.7308 0.0000
vt 0.2269 0.7208 0.0000
vt 0.2412 0.7176 0.0000
vt 0.2553 0.7219 0.0000
vt 0.2652 0.7326 0.0000
vt 0.2975 0.7475 0.0000
vt 0.2890 0.7760 0.0000
vt 0.2674 0.7963 0.0000
vt 0.2385 0.8032 0.0000
vt 0.2101 0.7947 0.0000
vt 0.1897 0.7731 0.0000
vt 0.1829 0.7442 0.0000
vt 0.1914 0.7158 0.0000
vt 0.2130 0.6954 0.0000
vt 0.2418 0.6886 0.0000
vt 0.2703 0.6971 0.0000
vt 0.2907 0.7186 0.0000
vt 0.3289 0.7476 0.0000
vt 0.3162 0.7917 0.0000
vt 0.2831 0.8236 0.0000
vt 0.2385 0.8346 0.0000
vt 0.1943 0.8219 0.0000
vt 0.1625 0.7887 0.0000
vt 0.1515 0.7441 0.0000
vt 0.1642 0.7000 0.0000
vt 0.1973 0.6682 0.0000
vt 0.2419 0.6571 0.0000
vt 0.2861 0.6699 0.0000
vt 0.3179 0.7030 0.0000
vt 0.3646 0.7472 0.0000
vt 0.3473 0.8092 0.0000
vt 0.3013 0.8543 0.0000
vt 0.2389 0.8703 0.0000
vt 0.1768 0.8530 0.0000
vt 0.1318 0.8069 0.0000
vt 0.1157 0.7445 0.0000
vt 0.1331 0.6825 0.0000
vt 0.1791 0.6374 0.0000
vt 0.2415 0.6214 0.0000
vt 0.3036 0.6388 0.0000
vt 0.3486 0.6848 0.0000
vt 0.4072 0.7465 0.0000
vt 0.3845 0.8299 0.0000
vt 0.3232 0.8908 0.0000
vt 0.2396 0.9129 0.0000
vt 0.1562 0.8902 0.0000
vt 0.0953 0.8289 0.0000
vt 0.0732 0.7453 0.0000
vt 0.0959 0.6619 0.0000
vt 0.1572 0.6010 0.0000
vt 0.2408 0.5789 0.0000
vt 0.3242 0.6015 0.0000
vt 0.3851 0.6629 0.0000
vt 0.4604 0.7459 0.0000
vt 0.4309 0.8560 0.0000
vt 0.3503 0.9365 0.0000
vt 0.2402 0.9660 0.0000
vt 0.1301 0.9365 0.0000
vt 0.0495 0.8560 0.0000
vt 0.0200 0.7459 0.0000
vt 0.0495 0.6358 0.0000
vt 0.1301 0.5552 0.0000
vt 0.2402 0.5257 0.0000
vt 0.3503 0.5552 0.0000
vt 0.4309 0.6358 0.0000
vt 0.0200 0.2219 0.0000
vt 0.0200 0.0200 0.0000
vt 0.1000 0.0200 0.0000
vt 0.1000 0.2219 0.0000
vt 0.1800 0.0200 0.0000
vt 0.1800 0.2219 0.0000
vt 0.2600 0.0200 0.0000
vt 0.2600 0.2219 0.0000
vt 0.3400 0.0200 0.0000
vt 0.3400 0.2219 0.0000
vt 0.4200 0.0200 0.0000
vt 0.4200 0.2219 0.0000
vt 0.5000 0.0200 0.0000
vt 0.5000 0.2219 0.0000
vt 0.5800 0.0200 0.0000
vt 0.5800 0.2219 0.0000
vt 0.6600 0.0200 0.0000
vt 0.6600 0.2219 0.0000
vt 0.7400 0.0200 0.0000
vt 0.7400 0.2219 0.0000
vt 0.8200 0.0200 0.0000
vt 0.8200 0.2219 0.0000
vt 0.9000 0.0200 0.0000
vt 0.9000 0.2219 0.0000
vt 0.9800 0.0200 0.0000
vt 0.9800 0.2219 0.0000
vt 0.9160 0.7418 0.0000
vt 0.8628 0.7423 0.0000
vt 0.8407 0.6587 0.0000
vt 0.8865 0.6317 0.0000
vt 0.7798 0.5974 0.0000
vt 0.8059 0.5511 0.0000
vt 0.6964 0.5748 0.0000
vt 0.6958 0.5216 0.0000
vt 0.6128 0.5968 0.0000
vt 0.5858 0.5511 0.0000
vt 0.5515 0.6577 0.0000
vt 0.5052 0.6317 0.0000
vt 0.5288 0.7412 0.0000
vt 0.4756 0.7418 0.0000
vt 0.5509 0.8248 0.0000
vt 0.5052 0.8518 0.0000
vt 0.6118 0.8861 0.0000
vt 0.5858 0.9324 0.0000
vt 0.6953 0.9087 0.0000
vt 0.6958 0.9619 0.0000
vt 0.7788 0.8867 0.0000
vt 0.8059 0.9324 0.0000
vt 0.8402 0.8258 0.0000
vt 0.8865 0.8518 0.0000
vt 0.8203 0.7431 0.0000
vt 0.8043 0.6807 0.0000
vt 0.7592 0.6346 0.0000
vt 0.6972 0.6173 0.0000
vt 0.6348 0.6333 0.0000
vt 0.5887 0.6784 0.0000
vt 0.5714 0.7404 0.0000
vt 0.5874 0.8028 0.0000
vt 0.6325 0.8489 0.0000
vt 0.6945 0.8662 0.0000
vt 0.7569 0.8502 0.0000
vt 0.8029 0.8051 0.0000
vt 0.7846 0.7435 0.0000
vt 0.7735 0.6989 0.0000
vt 0.7417 0.6658 0.0000
vt 0.6976 0.6530 0.0000
vt 0.6530 0.6640 0.0000
vt 0.6199 0.6959 0.0000
vt 0.6071 0.7400 0.0000
vt 0.6181 0.7846 0.0000
vt 0.6500 0.8177 0.0000
vt 0.6941 0.8305 0.0000
vt 0.7387 0.8195 0.0000
vt 0.7718 0.7876 0.0000
vt 0.7532 0.7434 0.0000
vt 0.7463 0.7145 0.0000
vt 0.7259 0.6929 0.0000
vt 0.6975 0.6844 0.0000
vt 0.6686 0.6913 0.0000
vt 0.6470 0.7117 0.0000
vt 0.6385 0.7401 0.0000
vt 0.6454 0.7690 0.0000
vt 0.6658 0.7906 0.0000
vt 0.6942 0.7991 0.0000
vt 0.7231 0.7922 0.0000
vt 0.7447 0.7718 0.0000
vt 0.7241 0.7428 0.0000
vt 0.7209 0.7285 0.0000
vt 0.7109 0.7178 0.0000
vt 0.6969 0.7134 0.0000
vt 0.6826 0.7167 0.0000
vt 0.6718 0.7267 0.0000
vt 0.6675 0.7407 0.0000
vt 0.6708 0.7550 0.0000
vt 0.6808 0.7657 0.0000
vt 0.6948 0.7701 0.0000
vt 0.7091 0.7668 0.0000
vt 0.7198 0.7568 0.0000
vt 0.6958 0.7418 0.0000
# 172 texture coords

g Capsule001
s 4
f 1/1/1 2/2/2 3/3/3 
f 1/1/1 3/3/3 4/4/4 
f 1/1/1 4/4/4 5/5/5 
f 1/1/1 5/5/5 6/6/6 
f 1/1/1 6/6/6 7/7/7 
f 1/1/1 7/7/7 8/8/8 
f 1/1/1 8/8/8 9/9/9 
f 1/1/1 9/9/9 10/10/10 
f 1/1/1 10/10/10 11/11/11 
f 1/1/1 11/11/11 12/12/12 
f 1/1/1 12/12/12 13/13/13 
f 1/1/1 13/13/13 2/2/2 
f 2/2/2 14/14/14 15/15/15 3/3/3 
f 3/3/3 15/15/15 16/16/16 4/4/4 
f 4/4/4 16/16/16 17/17/17 5/5/5 
f 5/5/5 17/17/17 18/18/18 6/6/6 
f 6/6/6 18/18/18 19/19/19 7/7/7 
f 7/7/7 19/19/19 20/20/20 8/8/8 
f 8/8/8 20/20/20 21/21/21 9/9/9 
f 9/9/9 21/21/21 22/22/22 10/10/10 
f 10/10/10 22/22/22 23/23/23 11/11/11 
f 11/11/11 23/23/23 24/24/24 12/12/12 
f 12/12/12 24/24/24 25/25/25 13/13/13 
f 13/13/13 25/25/25 14/14/14 2/2/2 
f 14/14/14 26/26/26 27/27/27 15/15/15 
f 15/15/15 27/27/27 28/28/28 16/16/16 
f 16/16/16 28/28/28 29/29/29 17/17/17 
f 17/17/17 29/29/29 30/30/30 18/18/18 
f 18/18/18 30/30/30 31/31/31 19/19/19 
f 19/19/19 31/31/31 32/32/32 20/20/20 
f 20/20/20 32/32/32 33/33/33 21/21/21 
f 21/21/21 33/33/33 34/34/34 22/22/22 
f 22/22/22 34/34/34 35/35/35 23/23/23 
f 23/23/23 35/35/35 36/36/36 24/24/24 
f 24/24/24 36/36/36 37/37/37 25/25/25 
f 25/25/25 37/37/37 26/26/26 14/14/14 
f 26/26/26 38/38/38 39/39/39 27/27/27 
f 27/27/27 39/39/39 40/40/40 28/28/28 
f 28/28/28 40/40/40 41/41/41 29/29/29 
f 29/29/29 41/41/41 42/42/42 30/30/30 
f 30/30/30 42/42/42 43/43/43 31/31/31 
f 31/31/31 43/43/43 44/44/44 32/32/32 
f 32/32/32 44/44/44 45/45/45 33/33/33 
f 33/33/33 45/45/45 46/46/46 34/34/34 
f 34/34/34 46/46/46 47/47/47 35/35/35 
f 35/35/35 47/47/47 48/48/48 36/36/36 
f 36/36/36 48/48/48 49/49/49 37/37/37 
f 37/37/37 49/49/49 38/38/38 26/26/26 
f 38/38/38 50/50/50 51/51/51 39/39/39 
f 39/39/39 51/51/51 52/52/52 40/40/40 
f 40/40/40 52/52/52 53/53/53 41/41/41 
f 41/41/41 53/53/53 54/54/54 42/42/42 
f 42/42/42 54/54/54 55/55/55 43/43/43 
f 43/43/43 55/55/55 56/56/56 44/44/44 
f 44/44/44 56/56/56 57/57/57 45/45/45 
f 45/45/45 57/57/57 58/58/58 46/46/46 
f 46/46/46 58/58/58 59/59/59 47/47/47 
f 47/47/47 59/59/59 60/60/60 48/48/48 
f 48/48/48 60/60/60 61/61/61 49/49/49 
f 49/49/49 61/61/61 50/50/50 38/38/38 
f 50/50/50 62/62/62 63/63/63 51/51/51 
f 51/51/51 63/63/63 64/64/64 52/52/52 
f 52/52/52 64/64/64 65/65/65 53/53/53 
f 53/53/53 65/65/65 66/66/66 54/54/54 
f 54/54/54 66/66/66 67/67/67 55/55/55 
f 55/55/55 67/67/67 68/68/68 56/56/56 
f 56/56/56 68/68/68 69/69/69 57/57/57 
f 57/57/57 69/69/69 70/70/70 58/58/58 
f 58/58/58 70/70/70 71/71/71 59/59/59 
f 59/59/59 71/71/71 72/72/72 60/60/60 
f 60/60/60 72/72/72 73/73/73 61/61/61 
f 61/61/61 73/73/73 62/62/62 50/50/50 
f 62/74/62 74/75/74 75/76/75 63/77/63 
f 63/77/63 75/76/75 76/78/76 64/79/64 
f 64/79/64 76/78/76 77/80/77 65/81/65 
f 65/81/65 77/80/77 78/82/78 66/83/66 
f 66/83/66 78/82/78 79/84/79 67/85/67 
f 67/85/67 79/84/79 80/86/80 68/87/68 
f 68/87/68 80/86/80 81/88/81 69/89/69 
f 69/89/69 81/88/81 82/90/82 70/91/70 
f 70/91/70 82/90/82 83/92/83 71/93/71 
f 71/93/71 83/92/83 84/94/84 72/95/72 
f 72/95/72 84/94/84 85/96/85 73/97/73 
f 73/97/73 85/96/85 74/98/74 62/99/62 
f 74/100/74 86/101/86 87/102/87 75/103/75 
f 75/103/75 87/102/87 88/104/88 76/105/76 
f 76/105/76 88/104/88 89/106/89 77/107/77 
f 77/107/77 89/106/89 90/108/90 78/109/78 
f 78/109/78 90/108/90 91/110/91 79/111/79 
f 79/111/79 91/110/91 92/112/92 80/113/80 
f 80/113/80 92/112/92 93/114/93 81/115/81 
f 81/115/81 93/114/93 94/116/94 82/117/82 
f 82/117/82 94/116/94 95/118/95 83/119/83 
f 83/119/83 95/118/95 96/120/96 84/121/84 
f 84/121/84 96/120/96 97/122/97 85/123/85 
f 85/123/85 97/122/97 86/101/86 74/100/74 
f 86/101/86 98/124/98 99/125/99 87/102/87 
f 87/102/87 99/125/99 100/126/100 88/104/88 
f 88/104/88 100/126/100 101/127/101 89/106/89 
f 89/106/89 101/127/101 102/128/102 90/108/90 
f 90/108/90 102/128/102 103/129/103 91/110/91 
f 91/110/91 103/129/103 104/130/104 92/112/92 
f 92/112/92 104/130/104 105/131/105 93/114/93 
f 93/114/93 105/131/105 106/132/106 94/116/94 
f 94/116/94 106/132/106 107/133/107 95/118/95 
f 95/118/95 107/133/107 108/134/108 96/120/96 
f 96/120/96 108/134/108 109/135/109 97/122/97 
f 97/122/97 109/135/109 98/124/98 86/101/86 
f 98/124/98 110/136/110 111/137/111 99/125/99 
f 99/125/99 111/137/111 112/138/112 100/126/100 
f 100/126/100 112/138/112 113/139/113 101/127/101 
f 101/127/101 113/139/113 114/140/114 102/128/102 
f 102/128/102 114/140/114 115/141/115 103/129/103 
f 103/129/103 115/141/115 116/142/116 104/130/104 
f 104/130/104 116/142/116 117/143/117 105/131/105 
f 105/131/105 117/143/117 118/144/118 106/132/106 
f 106/132/106 118/144/118 119/145/119 107/133/107 
f 107/133/107 119/145/119 120/146/120 108/134/108 
f 108/134/108 120/146/120 121/147/121 109/135/109 
f 109/135/109 121/147/121 110/136/110 98/124/98 
f 110/136/110 122/148/122 123/149/123 111/137/111 
f 111/137/111 123/149/123 124/150/124 112/138/112 
f 112/138/112 124/150/124 125/151/125 113/139/113 
f 113/139/113 125/151/125 126/152/126 114/140/114 
f 114/140/114 126/152/126 127/153/127 115/141/115 
f 115/141/115 127/153/127 128/154/128 116/142/116 
f 116/142/116 128/154/128 129/155/129 117/143/117 
f 117/143/117 129/155/129 130/156/130 118/144/118 
f 118/144/118 130/156/130 131/157/131 119/145/119 
f 119/145/119 131/157/131 132/158/132 120/146/120 
f 120/146/120 132/158/132 133/159/133 121/147/121 
f 121/147/121 133/159/133 122/148/122 110/136/110 
f 122/148/122 134/160/134 135/161/135 123/149/123 
f 123/149/123 135/161/135 136/162/136 124/150/124 
f 124/150/124 136/162/136 137/163/137 125/151/125 
f 125/151/125 137/163/137 138/164/138 126/152/126 
f 126/152/126 138/164/138 139/165/139 127/153/127 
f 127/153/127 139/165/139 140/166/140 128/154/128 
f 128/154/128 140/166/140 141/167/141 129/155/129 
f 129/155/129 141/167/141 142/168/142 130/156/130 
f 130/156/130 142/168/142 143/169/143 131/157/131 
f 131/157/131 143/169/143 144/170/144 132/158/132 
f 132/158/132 144/170/144 145/171/145 133/159/133 
f 133/159/133 145/171/145 134/160/134 122/148/122 
f 134/160/134 146/172/146 135/161/135 
f 135/161/135 146/172/146 136/162/136 
f 136/162/136 146/172/146 137/163/137 
f 137/163/137 146/172/146 138/164/138 
f 138/164/138 146/172/146 139/165/139 
f 139/165/139 146/172/146 140/166/140 
f 140/166/140 146/172/146 141/167/141 
f 141/167/141 146/172/146 142/168/142 
f 142/168/142 146/172/146 143/169/143 
f 143/169/143 146/172/146 144/170/144 
f 144/170/144 146/172/146 145/171/145 
f 145/171/145 146/172/146 134/160/134 
# 132 polygons - 24 triangles

