# 3ds Max Wavefront OBJ Exporter v0.97b - (c)2007 guruware
# File Created: 08.12.2016 16:34:45

#
# object Box001
#

v  6.4173 7.6314 -3.2036
v  8.2691 8.0194 -2.2060
v  8.4220 1.0748 0.2107
v  6.5702 0.6869 -0.7869
v  10.1209 8.4073 -1.2084
v  10.2738 1.4627 1.2084
v  11.9728 8.7952 -0.2107
v  12.1257 1.8507 2.2060
v  13.8246 9.1832 0.7869
v  13.9775 2.2386 3.2036
v  5.5575 8.1039 -1.7914
v  5.7104 1.1594 0.6253
v  7.5544 1.5516 1.6359
v  7.4424 8.4737 -0.8481
v  9.7313 1.7609 2.0995
v  9.5784 8.7055 -0.3172
v  11.3400 2.2825 3.4964
v  11.1034 9.2730 1.2172
v  13.1125 2.7140 4.6244
v  12.9596 9.6586 2.2077
# 20 vertices

vn 0.5000 -0.2748 -0.8213
vn -0.4793 0.2877 0.8292
vn -0.5064 0.2734 0.8178
vn -0.3678 0.3044 0.8787
vn -0.3663 0.3049 0.8791
vn -0.4717 0.2848 0.8345
vn -0.5099 0.2639 0.8188
vn -0.6280 0.2306 0.7433
vn -0.6258 0.2316 0.7448
vn -0.5505 0.2458 0.7978
vn -0.4965 0.2755 0.8232
vn -0.8658 -0.1814 -0.4664
vn 0.0208 -0.9442 0.3286
vn 0.8658 0.1814 0.4664
vn -0.0208 0.9442 -0.3286
# 15 vertex normals

vt 0.0200 0.4420 0.0000
vt 0.1381 0.4420 0.0000
vt 0.1381 0.8482 0.0000
vt 0.0200 0.8482 0.0000
vt 0.2563 0.4420 0.0000
vt 0.2563 0.8482 0.0000
vt 0.3744 0.4420 0.0000
vt 0.3744 0.8482 0.0000
vt 0.4925 0.4420 0.0000
vt 0.4925 0.8482 0.0000
vt 0.0200 0.4262 0.0000
vt 0.0200 0.0200 0.0000
vt 0.1381 0.0200 0.0000
vt 0.1382 0.4262 0.0000
vt 0.2616 0.0204 0.0000
vt 0.2604 0.4266 0.0000
vt 0.3828 0.0207 0.0000
vt 0.3840 0.4270 0.0000
vt 0.5012 0.0206 0.0000
vt 0.5021 0.4268 0.0000
vt 0.0200 0.8631 0.0000
vt 0.4262 0.8631 0.0000
vt 0.4262 0.9581 0.0000
vt 0.0200 0.9581 0.0000
vt 0.5075 0.5529 0.0000
vt 0.6256 0.5529 0.0000
vt 0.6256 0.6488 0.0000
vt 0.5075 0.6479 0.0000
vt 0.7437 0.5529 0.0000
vt 0.7437 0.6128 0.0000
vt 0.8619 0.5529 0.0000
vt 0.8619 0.6397 0.0000
vt 0.9800 0.5529 0.0000
vt 0.9800 0.6485 0.0000
vt 0.9232 0.1156 0.0000
vt 0.5170 0.1156 0.0000
vt 0.5170 0.0200 0.0000
vt 0.9232 0.0200 0.0000
vt 0.9800 0.5380 0.0000
vt 0.8619 0.5380 0.0000
vt 0.8619 0.4420 0.0000
vt 0.9800 0.4424 0.0000
vt 0.7437 0.5380 0.0000
vt 0.7437 0.4781 0.0000
vt 0.6256 0.5380 0.0000
vt 0.6256 0.4467 0.0000
vt 0.5075 0.5380 0.0000
vt 0.5075 0.4430 0.0000
# 48 texture coords

g Box001
s 2
f 1/1/1 2/2/1 3/3/1 4/4/1 
f 2/2/1 5/5/1 6/6/1 3/3/1 
f 5/5/1 7/7/1 8/8/1 6/6/1 
f 7/7/1 9/9/1 10/10/1 8/8/1 
s 4
f 11/11/2 12/12/3 13/13/4 14/14/5 
f 14/14/5 13/13/4 15/15/6 16/16/7 
f 16/16/7 15/15/6 17/17/8 18/18/9 
f 18/18/9 17/17/8 19/19/10 20/20/11 
s 8
f 1/21/12 4/22/12 12/23/12 11/24/12 
s 16
f 4/25/13 3/26/13 13/27/13 12/28/13 
f 3/26/13 6/29/13 15/30/13 13/27/13 
f 6/29/13 8/31/13 17/32/13 15/30/13 
f 8/31/13 10/33/13 19/34/13 17/32/13 
s 32
f 10/35/14 9/36/14 20/37/14 19/38/14 
s 64
f 9/39/15 7/40/15 18/41/15 20/42/15 
f 7/40/15 5/43/15 16/44/15 18/41/15 
f 5/43/15 2/45/15 14/46/15 16/44/15 
f 2/45/15 1/47/15 11/48/15 14/46/15 
# 18 polygons

