# 3ds Max Wavefront OBJ Exporter v0.97b - (c)2007 guruware
# File Created: 08.12.2016 15:57:02

#
# object Cylinder001
#

v  -3.1698 0.6900 0.0000
v  -3.1745 0.7164 0.0000
v  -3.1921 0.7100 0.2460
v  -3.1885 0.6900 0.2460
v  -3.1879 0.7396 0.0000
v  -3.2022 0.7276 0.2460
v  -3.2084 0.7568 0.0000
v  -3.2178 0.7406 0.2460
v  -3.2336 0.7660 0.0000
v  -3.2368 0.7476 0.2460
v  -3.2604 0.7660 0.0000
v  -3.2571 0.7476 0.2460
v  -3.2856 0.7568 0.0000
v  -3.2762 0.7406 0.2460
v  -3.3061 0.7396 0.0000
v  -3.2917 0.7276 0.2460
v  -3.3195 0.7164 0.0000
v  -3.3019 0.7100 0.2460
v  -3.3241 0.6900 0.0000
v  -3.3054 0.6900 0.2460
v  -3.3195 0.6636 0.0000
v  -3.3019 0.6700 0.2460
v  -3.3061 0.6404 0.0000
v  -3.2917 0.6525 0.2460
v  -3.2856 0.6232 0.0000
v  -3.2762 0.6394 0.2460
v  -3.2604 0.6141 0.0000
v  -3.2571 0.6325 0.2460
v  -3.2336 0.6141 0.0000
v  -3.2368 0.6325 0.2460
v  -3.2084 0.6232 0.0000
v  -3.2178 0.6394 0.2460
v  -3.1879 0.6404 0.0000
v  -3.2022 0.6525 0.2460
v  -3.1745 0.6636 0.0000
v  -3.1921 0.6700 0.2460
v  -3.1921 0.7100 0.4920
v  -3.1885 0.6900 0.4920
v  -3.2022 0.7276 0.4920
v  -3.2178 0.7406 0.4920
v  -3.2368 0.7476 0.4920
v  -3.2571 0.7476 0.4920
v  -3.2762 0.7406 0.4920
v  -3.2917 0.7276 0.4920
v  -3.3019 0.7100 0.4920
v  -3.3054 0.6900 0.4920
v  -3.3019 0.6700 0.4920
v  -3.2917 0.6525 0.4920
v  -3.2762 0.6394 0.4920
v  -3.2571 0.6325 0.4920
v  -3.2368 0.6325 0.4920
v  -3.2178 0.6394 0.4920
v  -3.2022 0.6525 0.4920
v  -3.1921 0.6700 0.4920
v  -3.1745 0.7164 0.7380
v  -3.1698 0.6900 0.7380
v  -3.1879 0.7396 0.7380
v  -3.2084 0.7568 0.7380
v  -3.2336 0.7660 0.7380
v  -3.2604 0.7660 0.7380
v  -3.2856 0.7568 0.7380
v  -3.3061 0.7396 0.7380
v  -3.3195 0.7164 0.7380
v  -3.3241 0.6900 0.7380
v  -3.3195 0.6636 0.7380
v  -3.3061 0.6404 0.7380
v  -3.2856 0.6232 0.7380
v  -3.2604 0.6141 0.7380
v  -3.2336 0.6141 0.7380
v  -3.2084 0.6232 0.7380
v  -3.1879 0.6404 0.7380
v  -3.1745 0.6636 0.7380
v  -3.1827 0.7134 1.4901
v  -3.1786 0.6900 1.4901
v  -3.1946 0.7340 1.4901
v  -3.2128 0.7493 1.4901
v  -3.2351 0.7574 1.4901
v  -3.2589 0.7574 1.4901
v  -3.2812 0.7493 1.4901
v  -3.2994 0.7340 1.4901
v  -3.3113 0.7134 1.4901
v  -3.3154 0.6900 1.4901
v  -3.3113 0.6666 1.4901
v  -3.2994 0.6460 1.4901
v  -3.2812 0.6308 1.4901
v  -3.2589 0.6226 1.4901
v  -3.2351 0.6226 1.4901
v  -3.2128 0.6308 1.4901
v  -3.1946 0.6460 1.4901
v  -3.1827 0.6666 1.4901
v  -3.1892 0.7111 1.5982
v  -3.1855 0.6900 1.5982
v  -3.1999 0.7296 1.5982
v  -3.2162 0.7433 1.5982
v  -3.2363 0.7506 1.5982
v  -3.2577 0.7506 1.5982
v  -3.2777 0.7433 1.5982
v  -3.2941 0.7296 1.5982
v  -3.3048 0.7111 1.5982
v  -3.3085 0.6900 1.5982
v  -3.3048 0.6690 1.5982
v  -3.2941 0.6505 1.5982
v  -3.2777 0.6368 1.5982
v  -3.2577 0.6295 1.5982
v  -3.2363 0.6295 1.5982
v  -3.2162 0.6368 1.5982
v  -3.1999 0.6505 1.5982
v  -3.1892 0.6690 1.5982
v  -3.2033 0.7059 1.6713
v  -3.2005 0.6900 1.6713
v  -3.2114 0.7199 1.6713
v  -3.2237 0.7303 1.6713
v  -3.2389 0.7358 1.6713
v  -3.2551 0.7358 1.6713
v  -3.2702 0.7303 1.6713
v  -3.2826 0.7199 1.6713
v  -3.2907 0.7059 1.6713
v  -3.2935 0.6900 1.6713
v  -3.2907 0.6741 1.6713
v  -3.2826 0.6601 1.6713
v  -3.2702 0.6498 1.6713
v  -3.2551 0.6442 1.6713
v  -3.2389 0.6442 1.6713
v  -3.2237 0.6498 1.6713
v  -3.2114 0.6601 1.6713
v  -3.2033 0.6741 1.6713
v  -3.2264 0.6975 1.7220
v  -3.2251 0.6900 1.7220
v  -3.2302 0.7041 1.7220
v  -3.2360 0.7090 1.7220
v  -3.2432 0.7116 1.7220
v  -3.2508 0.7116 1.7220
v  -3.2579 0.7090 1.7220
v  -3.2637 0.7041 1.7220
v  -3.2675 0.6975 1.7220
v  -3.2688 0.6900 1.7220
v  -3.2675 0.6825 1.7220
v  -3.2637 0.6760 1.7220
v  -3.2579 0.6711 1.7220
v  -3.2508 0.6685 1.7220
v  -3.2432 0.6685 1.7220
v  -3.2360 0.6711 1.7220
v  -3.2302 0.6760 1.7220
v  -3.2264 0.6825 1.7220
# 144 vertices

vn 0.9644 -0.0000 0.2645
vn 0.9062 0.3298 0.2645
vn 0.9310 0.3389 0.1354
vn 0.9908 -0.0000 0.1354
vn 0.7388 0.6199 0.2645
vn 0.7590 0.6369 0.1354
vn 0.4822 0.8352 0.2645
vn 0.4954 0.8580 0.1354
vn 0.1675 0.9497 0.2645
vn 0.1720 0.9757 0.1354
vn -0.1675 0.9497 0.2645
vn -0.1720 0.9757 0.1354
vn -0.4822 0.8352 0.2645
vn -0.4954 0.8580 0.1354
vn -0.7388 0.6199 0.2645
vn -0.7590 0.6369 0.1354
vn -0.9062 0.3298 0.2645
vn -0.9310 0.3389 0.1354
vn -0.9644 0.0000 0.2645
vn -0.9908 0.0000 0.1354
vn -0.9062 -0.3298 0.2645
vn -0.9310 -0.3389 0.1354
vn -0.7388 -0.6199 0.2645
vn -0.7590 -0.6369 0.1354
vn -0.4822 -0.8352 0.2645
vn -0.4954 -0.8580 0.1354
vn -0.1675 -0.9497 0.2645
vn -0.1720 -0.9757 0.1354
vn 0.1675 -0.9497 0.2645
vn 0.1720 -0.9757 0.1354
vn 0.4822 -0.8352 0.2645
vn 0.4954 -0.8580 0.1354
vn 0.7388 -0.6199 0.2645
vn 0.7590 -0.6369 0.1354
vn 0.9062 -0.3298 0.2645
vn 0.9310 -0.3389 0.1354
vn 0.9310 0.3389 -0.1354
vn 0.9908 -0.0000 -0.1354
vn 0.7590 0.6369 -0.1354
vn 0.4954 0.8580 -0.1354
vn 0.1720 0.9757 -0.1354
vn -0.1720 0.9757 -0.1354
vn -0.4954 0.8580 -0.1354
vn -0.7590 0.6369 -0.1354
vn -0.9310 0.3389 -0.1354
vn -0.9908 0.0000 -0.1354
vn -0.9310 -0.3389 -0.1354
vn -0.7590 -0.6369 -0.1354
vn -0.4954 -0.8580 -0.1354
vn -0.1720 -0.9757 -0.1354
vn 0.1720 -0.9757 -0.1354
vn 0.4954 -0.8580 -0.1354
vn 0.7590 -0.6369 -0.1354
vn 0.9310 -0.3389 -0.1354
vn 0.9339 0.3399 -0.1108
vn 0.9938 -0.0000 -0.1108
vn 0.7613 0.6388 -0.1108
vn 0.4969 0.8607 -0.1108
vn 0.1726 0.9787 -0.1108
vn -0.1726 0.9787 -0.1108
vn -0.4969 0.8607 -0.1108
vn -0.7613 0.6388 -0.1108
vn -0.9339 0.3399 -0.1108
vn -0.9938 0.0000 -0.1108
vn -0.9339 -0.3399 -0.1108
vn -0.7613 -0.6388 -0.1108
vn -0.4969 -0.8607 -0.1108
vn -0.1726 -0.9787 -0.1108
vn 0.1726 -0.9787 -0.1108
vn 0.4969 -0.8607 -0.1108
vn 0.7613 -0.6388 -0.1108
vn 0.9339 -0.3399 -0.1108
vn 0.9314 0.3390 0.1324
vn 0.9912 -0.0000 0.1324
vn 0.7593 0.6371 0.1324
vn 0.4956 0.8584 0.1324
vn 0.1721 0.9761 0.1324
vn -0.1721 0.9761 0.1324
vn -0.4956 0.8584 0.1324
vn -0.7593 0.6371 0.1324
vn -0.9314 0.3390 0.1324
vn -0.9912 0.0000 0.1324
vn -0.9314 -0.3390 0.1324
vn -0.7593 -0.6371 0.1324
vn -0.4956 -0.8584 0.1324
vn -0.1721 -0.9761 0.1324
vn 0.1721 -0.9761 0.1324
vn 0.4956 -0.8584 0.1324
vn 0.7593 -0.6371 0.1324
vn 0.9314 -0.3390 0.1324
vn 0.8569 0.3119 0.4104
vn 0.9119 -0.0000 0.4104
vn 0.6986 0.5862 0.4104
vn 0.4560 0.7897 0.4104
vn 0.1584 0.8980 0.4104
vn -0.1584 0.8980 0.4104
vn -0.4560 0.7897 0.4104
vn -0.6986 0.5862 0.4104
vn -0.8569 0.3119 0.4104
vn -0.9119 0.0000 0.4104
vn -0.8569 -0.3119 0.4104
vn -0.6986 -0.5862 0.4104
vn -0.4560 -0.7897 0.4104
vn -0.1584 -0.8980 0.4104
vn 0.1583 -0.8980 0.4104
vn 0.4560 -0.7897 0.4104
vn 0.6986 -0.5862 0.4104
vn 0.8569 -0.3119 0.4104
vn 0.6355 0.2313 0.7367
vn 0.6762 0.0000 0.7367
vn 0.5180 0.4347 0.7367
vn 0.3381 0.5856 0.7367
vn 0.1174 0.6660 0.7367
vn -0.1174 0.6660 0.7367
vn -0.3381 0.5856 0.7367
vn -0.5180 0.4347 0.7367
vn -0.6355 0.2313 0.7367
vn -0.6762 0.0000 0.7367
vn -0.6355 -0.2313 0.7367
vn -0.5180 -0.4347 0.7367
vn -0.3381 -0.5856 0.7367
vn -0.1174 -0.6660 0.7367
vn 0.1174 -0.6660 0.7367
vn 0.3381 -0.5856 0.7367
vn 0.5180 -0.4347 0.7367
vn 0.6355 -0.2313 0.7367
vn 0.4660 0.1696 0.8684
vn 0.4959 0.0000 0.8684
vn 0.3799 0.3188 0.8684
vn 0.2480 0.4295 0.8684
vn 0.0861 0.4884 0.8684
vn -0.0861 0.4884 0.8684
vn -0.2480 0.4295 0.8684
vn -0.3799 0.3188 0.8684
vn -0.4660 0.1696 0.8684
vn -0.4959 0.0000 0.8684
vn -0.4660 -0.1696 0.8684
vn -0.3799 -0.3188 0.8684
vn -0.2480 -0.4295 0.8684
vn -0.0861 -0.4884 0.8684
vn 0.0861 -0.4884 0.8684
vn 0.2480 -0.4295 0.8684
vn 0.3799 -0.3188 0.8684
vn 0.4660 -0.1696 0.8684
vn 0.0000 0.0000 -1.0000
vn 0.0000 0.0000 1.0000
# 146 vertex normals

vt 0.7500 0.0000 1.0000
vt 0.8056 0.0000 1.0000
vt 0.8056 0.1429 1.0000
vt 0.7500 0.1429 1.0000
vt 0.8611 0.0000 1.0000
vt 0.8611 0.1429 1.0000
vt 0.9167 0.0000 1.0000
vt 0.9167 0.1429 1.0000
vt 0.9722 0.0000 1.0000
vt 0.9722 0.1429 1.0000
vt 1.0278 0.0000 1.0000
vt 1.0278 0.1429 1.0000
vt 0.0278 0.0000 1.0000
vt 0.0833 0.0000 1.0000
vt 0.0833 0.1429 1.0000
vt 0.0278 0.1429 1.0000
vt 0.1389 0.0000 1.0000
vt 0.1389 0.1429 1.0000
vt 0.1944 0.0000 1.0000
vt 0.1944 0.1429 1.0000
vt 0.2500 0.0000 1.0000
vt 0.2500 0.1429 1.0000
vt 0.3056 0.0000 1.0000
vt 0.3056 0.1429 1.0000
vt 0.3611 0.0000 1.0000
vt 0.3611 0.1429 1.0000
vt 0.4167 0.0000 1.0000
vt 0.4167 0.1429 1.0000
vt 0.4722 0.0000 1.0000
vt 0.4722 0.1429 1.0000
vt 0.5278 0.0000 1.0000
vt 0.5278 0.1429 1.0000
vt 0.5833 0.0000 1.0000
vt 0.5833 0.1429 1.0000
vt 0.6389 0.0000 1.0000
vt 0.6389 0.1429 1.0000
vt 0.6944 0.0000 1.0000
vt 0.6944 0.1429 1.0000
vt 0.8056 0.2857 1.0000
vt 0.7500 0.2857 1.0000
vt 0.8611 0.2857 1.0000
vt 0.9167 0.2857 1.0000
vt 0.9722 0.2857 1.0000
vt 1.0278 0.2857 1.0000
vt 0.0833 0.2857 1.0000
vt 0.0278 0.2857 1.0000
vt 0.1389 0.2857 1.0000
vt 0.1944 0.2857 1.0000
vt 0.2500 0.2857 1.0000
vt 0.3056 0.2857 1.0000
vt 0.3611 0.2857 1.0000
vt 0.4167 0.2857 1.0000
vt 0.4722 0.2857 1.0000
vt 0.5278 0.2857 1.0000
vt 0.5833 0.2857 1.0000
vt 0.6389 0.2857 1.0000
vt 0.6944 0.2857 1.0000
vt 0.8056 0.4286 1.0000
vt 0.7500 0.4286 1.0000
vt 0.8611 0.4286 1.0000
vt 0.9167 0.4286 1.0000
vt 0.9722 0.4286 1.0000
vt 1.0278 0.4286 1.0000
vt 0.0833 0.4286 1.0000
vt 0.0278 0.4286 1.0000
vt 0.1389 0.4286 1.0000
vt 0.1944 0.4286 1.0000
vt 0.2500 0.4286 1.0000
vt 0.3056 0.4286 1.0000
vt 0.3611 0.4286 1.0000
vt 0.4167 0.4286 1.0000
vt 0.4722 0.4286 1.0000
vt 0.5278 0.4286 1.0000
vt 0.5833 0.4286 1.0000
vt 0.6389 0.4286 1.0000
vt 0.6944 0.4286 1.0000
vt 0.8056 0.5714 1.0000
vt 0.7500 0.5714 1.0000
vt 0.8611 0.5714 1.0000
vt 0.9167 0.5714 1.0000
vt 0.9722 0.5714 1.0000
vt 1.0278 0.5714 1.0000
vt 0.0833 0.5714 1.0000
vt 0.0278 0.5714 1.0000
vt 0.1389 0.5714 1.0000
vt 0.1944 0.5714 1.0000
vt 0.2500 0.5714 1.0000
vt 0.3056 0.5714 1.0000
vt 0.3611 0.5714 1.0000
vt 0.4167 0.5714 1.0000
vt 0.4722 0.5714 1.0000
vt 0.5278 0.5714 1.0000
vt 0.5833 0.5714 1.0000
vt 0.6389 0.5714 1.0000
vt 0.6944 0.5714 1.0000
vt 0.8056 0.7143 1.0000
vt 0.7500 0.7143 1.0000
vt 0.8611 0.7143 1.0000
vt 0.9167 0.7143 1.0000
vt 0.9722 0.7143 1.0000
vt 1.0278 0.7143 1.0000
vt 0.0833 0.7143 1.0000
vt 0.0278 0.7143 1.0000
vt 0.1389 0.7143 1.0000
vt 0.1944 0.7143 1.0000
vt 0.2500 0.7143 1.0000
vt 0.3056 0.7143 1.0000
vt 0.3611 0.7143 1.0000
vt 0.4167 0.7143 1.0000
vt 0.4722 0.7143 1.0000
vt 0.5278 0.7143 1.0000
vt 0.5833 0.7143 1.0000
vt 0.6389 0.7143 1.0000
vt 0.6944 0.7143 1.0000
vt 0.8056 0.8571 1.0000
vt 0.7500 0.8571 1.0000
vt 0.8611 0.8571 1.0000
vt 0.9167 0.8571 1.0000
vt 0.9722 0.8571 1.0000
vt 1.0278 0.8571 1.0000
vt 0.0833 0.8571 1.0000
vt 0.0278 0.8571 1.0000
vt 0.1389 0.8571 1.0000
vt 0.1944 0.8571 1.0000
vt 0.2500 0.8571 1.0000
vt 0.3056 0.8571 1.0000
vt 0.3611 0.8571 1.0000
vt 0.4167 0.8571 1.0000
vt 0.4722 0.8571 1.0000
vt 0.5278 0.8571 1.0000
vt 0.5833 0.8571 1.0000
vt 0.6389 0.8571 1.0000
vt 0.6944 0.8571 1.0000
vt 0.8056 1.0000 1.0000
vt 0.7500 1.0000 1.0000
vt 0.8611 1.0000 1.0000
vt 0.9167 1.0000 1.0000
vt 0.9722 1.0000 1.0000
vt 1.0278 1.0000 1.0000
vt 0.0833 1.0000 1.0000
vt 0.0278 1.0000 1.0000
vt 0.1389 1.0000 1.0000
vt 0.1944 1.0000 1.0000
vt 0.2500 1.0000 1.0000
vt 0.3056 1.0000 1.0000
vt 0.3611 1.0000 1.0000
vt 0.4167 1.0000 1.0000
vt 0.4722 1.0000 1.0000
vt 0.5278 1.0000 1.0000
vt 0.5833 1.0000 1.0000
vt 0.6389 1.0000 1.0000
vt 0.6944 1.0000 1.0000
vt 0.6710 0.9698 -0.2500
vt 0.8214 0.8830 -0.2500
vt 0.9330 0.7500 -0.2500
vt 0.9924 0.5868 -0.2500
vt 0.9924 0.4132 -0.2500
vt 0.9330 0.2500 -0.2500
vt 0.8214 0.1170 -0.2500
vt 0.6710 0.0302 -0.2500
vt 0.5000 0.0000 -0.2500
vt 0.3290 0.0302 -0.2500
vt 0.1786 0.1170 -0.2500
vt 0.0670 0.2500 -0.2500
vt 0.0076 0.4132 -0.2500
vt 0.0076 0.5868 -0.2500
vt 0.0670 0.7500 -0.2500
vt 0.1786 0.8830 -0.2500
vt 0.3290 0.9698 -0.2500
vt 0.5000 1.0000 -0.2500
vt 0.5000 1.0000 0.2500
vt 0.3290 0.9698 0.2500
vt 0.1786 0.8830 0.2500
vt 0.0670 0.7500 0.2500
vt 0.0076 0.5868 0.2500
vt 0.0076 0.4132 0.2500
vt 0.0670 0.2500 0.2500
vt 0.1786 0.1170 0.2500
vt 0.3290 0.0302 0.2500
vt 0.5000 0.0000 0.2500
vt 0.6710 0.0302 0.2500
vt 0.8214 0.1170 0.2500
vt 0.9330 0.2500 0.2500
vt 0.9924 0.4132 0.2500
vt 0.9924 0.5868 0.2500
vt 0.9330 0.7500 0.2500
vt 0.8214 0.8830 0.2500
vt 0.6710 0.9698 0.2500
# 188 texture coords

g Cylinder001
s 8
f 1/1/1 2/2/2 3/3/3 4/4/4 
f 2/2/2 5/5/5 6/6/6 3/3/3 
f 5/5/5 7/7/7 8/8/8 6/6/6 
f 7/7/7 9/9/9 10/10/10 8/8/8 
f 9/9/9 11/11/11 12/12/12 10/10/10 
f 11/13/11 13/14/13 14/15/14 12/16/12 
f 13/14/13 15/17/15 16/18/16 14/15/14 
f 15/17/15 17/19/17 18/20/18 16/18/16 
f 17/19/17 19/21/19 20/22/20 18/20/18 
f 19/21/19 21/23/21 22/24/22 20/22/20 
f 21/23/21 23/25/23 24/26/24 22/24/22 
f 23/25/23 25/27/25 26/28/26 24/26/24 
f 25/27/25 27/29/27 28/30/28 26/28/26 
f 27/29/27 29/31/29 30/32/30 28/30/28 
f 29/31/29 31/33/31 32/34/32 30/32/30 
f 31/33/31 33/35/33 34/36/34 32/34/32 
f 33/35/33 35/37/35 36/38/36 34/36/34 
f 35/37/35 1/1/1 4/4/4 36/38/36 
f 4/4/4 3/3/3 37/39/37 38/40/38 
f 3/3/3 6/6/6 39/41/39 37/39/37 
f 6/6/6 8/8/8 40/42/40 39/41/39 
f 8/8/8 10/10/10 41/43/41 40/42/40 
f 10/10/10 12/12/12 42/44/42 41/43/41 
f 12/16/12 14/15/14 43/45/43 42/46/42 
f 14/15/14 16/18/16 44/47/44 43/45/43 
f 16/18/16 18/20/18 45/48/45 44/47/44 
f 18/20/18 20/22/20 46/49/46 45/48/45 
f 20/22/20 22/24/22 47/50/47 46/49/46 
f 22/24/22 24/26/24 48/51/48 47/50/47 
f 24/26/24 26/28/26 49/52/49 48/51/48 
f 26/28/26 28/30/28 50/53/50 49/52/49 
f 28/30/28 30/32/30 51/54/51 50/53/50 
f 30/32/30 32/34/32 52/55/52 51/54/51 
f 32/34/32 34/36/34 53/56/53 52/55/52 
f 34/36/34 36/38/36 54/57/54 53/56/53 
f 36/38/36 4/4/4 38/40/38 54/57/54 
f 38/40/38 37/39/37 55/58/55 56/59/56 
f 37/39/37 39/41/39 57/60/57 55/58/55 
f 39/41/39 40/42/40 58/61/58 57/60/57 
f 40/42/40 41/43/41 59/62/59 58/61/58 
f 41/43/41 42/44/42 60/63/60 59/62/59 
f 42/46/42 43/45/43 61/64/61 60/65/60 
f 43/45/43 44/47/44 62/66/62 61/64/61 
f 44/47/44 45/48/45 63/67/63 62/66/62 
f 45/48/45 46/49/46 64/68/64 63/67/63 
f 46/49/46 47/50/47 65/69/65 64/68/64 
f 47/50/47 48/51/48 66/70/66 65/69/65 
f 48/51/48 49/52/49 67/71/67 66/70/66 
f 49/52/49 50/53/50 68/72/68 67/71/67 
f 50/53/50 51/54/51 69/73/69 68/72/68 
f 51/54/51 52/55/52 70/74/70 69/73/69 
f 52/55/52 53/56/53 71/75/71 70/74/70 
f 53/56/53 54/57/54 72/76/72 71/75/71 
f 54/57/54 38/40/38 56/59/56 72/76/72 
f 56/59/56 55/58/55 73/77/73 74/78/74 
f 55/58/55 57/60/57 75/79/75 73/77/73 
f 57/60/57 58/61/58 76/80/76 75/79/75 
f 58/61/58 59/62/59 77/81/77 76/80/76 
f 59/62/59 60/63/60 78/82/78 77/81/77 
f 60/65/60 61/64/61 79/83/79 78/84/78 
f 61/64/61 62/66/62 80/85/80 79/83/79 
f 62/66/62 63/67/63 81/86/81 80/85/80 
f 63/67/63 64/68/64 82/87/82 81/86/81 
f 64/68/64 65/69/65 83/88/83 82/87/82 
f 65/69/65 66/70/66 84/89/84 83/88/83 
f 66/70/66 67/71/67 85/90/85 84/89/84 
f 67/71/67 68/72/68 86/91/86 85/90/85 
f 68/72/68 69/73/69 87/92/87 86/91/86 
f 69/73/69 70/74/70 88/93/88 87/92/87 
f 70/74/70 71/75/71 89/94/89 88/93/88 
f 71/75/71 72/76/72 90/95/90 89/94/89 
f 72/76/72 56/59/56 74/78/74 90/95/90 
f 74/78/74 73/77/73 91/96/91 92/97/92 
f 73/77/73 75/79/75 93/98/93 91/96/91 
f 75/79/75 76/80/76 94/99/94 93/98/93 
f 76/80/76 77/81/77 95/100/95 94/99/94 
f 77/81/77 78/82/78 96/101/96 95/100/95 
f 78/84/78 79/83/79 97/102/97 96/103/96 
f 79/83/79 80/85/80 98/104/98 97/102/97 
f 80/85/80 81/86/81 99/105/99 98/104/98 
f 81/86/81 82/87/82 100/106/100 99/105/99 
f 82/87/82 83/88/83 101/107/101 100/106/100 
f 83/88/83 84/89/84 102/108/102 101/107/101 
f 84/89/84 85/90/85 103/109/103 102/108/102 
f 85/90/85 86/91/86 104/110/104 103/109/103 
f 86/91/86 87/92/87 105/111/105 104/110/104 
f 87/92/87 88/93/88 106/112/106 105/111/105 
f 88/93/88 89/94/89 107/113/107 106/112/106 
f 89/94/89 90/95/90 108/114/108 107/113/107 
f 90/95/90 74/78/74 92/97/92 108/114/108 
f 92/97/92 91/96/91 109/115/109 110/116/110 
f 91/96/91 93/98/93 111/117/111 109/115/109 
f 93/98/93 94/99/94 112/118/112 111/117/111 
f 94/99/94 95/100/95 113/119/113 112/118/112 
f 95/100/95 96/101/96 114/120/114 113/119/113 
f 96/103/96 97/102/97 115/121/115 114/122/114 
f 97/102/97 98/104/98 116/123/116 115/121/115 
f 98/104/98 99/105/99 117/124/117 116/123/116 
f 99/105/99 100/106/100 118/125/118 117/124/117 
f 100/106/100 101/107/101 119/126/119 118/125/118 
f 101/107/101 102/108/102 120/127/120 119/126/119 
f 102/108/102 103/109/103 121/128/121 120/127/120 
f 103/109/103 104/110/104 122/129/122 121/128/121 
f 104/110/104 105/111/105 123/130/123 122/129/122 
f 105/111/105 106/112/106 124/131/124 123/130/123 
f 106/112/106 107/113/107 125/132/125 124/131/124 
f 107/113/107 108/114/108 126/133/126 125/132/125 
f 108/114/108 92/97/92 110/116/110 126/133/126 
f 110/116/110 109/115/109 127/134/127 128/135/128 
f 109/115/109 111/117/111 129/136/129 127/134/127 
f 111/117/111 112/118/112 130/137/130 129/136/129 
f 112/118/112 113/119/113 131/138/131 130/137/130 
f 113/119/113 114/120/114 132/139/132 131/138/131 
f 114/122/114 115/121/115 133/140/133 132/141/132 
f 115/121/115 116/123/116 134/142/134 133/140/133 
f 116/123/116 117/124/117 135/143/135 134/142/134 
f 117/124/117 118/125/118 136/144/136 135/143/135 
f 118/125/118 119/126/119 137/145/137 136/144/136 
f 119/126/119 120/127/120 138/146/138 137/145/137 
f 120/127/120 121/128/121 139/147/139 138/146/138 
f 121/128/121 122/129/122 140/148/140 139/147/139 
f 122/129/122 123/130/123 141/149/141 140/148/140 
f 123/130/123 124/131/124 142/150/142 141/149/141 
f 124/131/124 125/132/125 143/151/143 142/150/142 
f 125/132/125 126/133/126 144/152/144 143/151/143 
f 126/133/126 110/116/110 128/135/128 144/152/144 
s 1
f 35/153/145 33/154/145 31/155/145 29/156/145 27/157/145 25/158/145 23/159/145 21/160/145 19/161/145 17/162/145 15/163/145 13/164/145 11/165/145 9/166/145 7/167/145 5/168/145 2/169/145 1/170/145 
f 128/171/146 127/172/146 129/173/146 130/174/146 131/175/146 132/176/146 133/177/146 134/178/146 135/179/146 136/180/146 137/181/146 138/182/146 139/183/146 140/184/146 141/185/146 142/186/146 143/187/146 144/188/146 
# 128 polygons

