# 3ds Max Wavefront OBJ Exporter v0.97b - (c)2007 guruware
# File Created: 08.12.2016 16:19:13

#
# object Cylinder001
#

v  -1.0970 1.0501 0.1412
v  -1.0913 1.0658 0.1202
v  -1.1581 0.8826 -0.0309
v  -1.1624 0.8707 -0.0150
v  -1.0775 1.0769 0.1001
v  -1.1477 0.8910 -0.0461
v  -1.0574 1.0821 0.0832
v  -1.1324 0.8950 -0.0589
v  -1.0332 1.0808 0.0717
v  -1.1142 0.8939 -0.0677
v  -1.0081 1.0731 0.0668
v  -1.0951 0.8881 -0.0714
v  -0.9848 1.0599 0.0692
v  -1.0775 0.8781 -0.0696
v  -0.9664 1.0428 0.0785
v  -1.0635 0.8652 -0.0624
v  -0.9550 1.0240 0.0938
v  -1.0549 0.8509 -0.0509
v  -0.9519 1.0056 0.1131
v  -1.0526 0.8370 -0.0363
v  -0.9576 0.9899 0.1340
v  -1.0569 0.8251 -0.0204
v  -0.9714 0.9788 0.1541
v  -1.0673 0.8167 -0.0052
v  -0.9915 0.9736 0.1710
v  -1.0826 0.8128 0.0076
v  -1.0157 0.9750 0.1826
v  -1.1009 0.8138 0.0164
v  -1.0408 0.9827 0.1875
v  -1.1199 0.8197 0.0201
v  -1.0641 0.9959 0.1851
v  -1.1375 0.8296 0.0183
v  -1.0825 1.0129 0.1757
v  -1.1515 0.8425 0.0112
v  -1.0939 1.0318 0.1605
v  -1.1601 0.8568 -0.0004
v  -1.2412 0.7086 -0.1836
v  -1.2455 0.6967 -0.1677
v  -1.2308 0.7170 -0.1989
v  -1.2155 0.7210 -0.2117
v  -1.1972 0.7199 -0.2204
v  -1.1782 0.7141 -0.2241
v  -1.1606 0.7041 -0.2223
v  -1.1466 0.6912 -0.2152
v  -1.1380 0.6769 -0.2037
v  -1.1356 0.6630 -0.1891
v  -1.1400 0.6511 -0.1732
v  -1.1504 0.6427 -0.1579
v  -1.1656 0.6388 -0.1452
v  -1.1839 0.6398 -0.1364
v  -1.2030 0.6456 -0.1327
v  -1.2206 0.6556 -0.1345
v  -1.2345 0.6685 -0.1416
v  -1.2432 0.6828 -0.1532
v  -1.3405 0.5438 -0.3381
v  -1.3462 0.5281 -0.3171
v  -1.3267 0.5549 -0.3582
v  -1.3066 0.5601 -0.3751
v  -1.2824 0.5587 -0.3867
v  -1.2572 0.5510 -0.3915
v  -1.2340 0.5378 -0.3892
v  -1.2156 0.5208 -0.3798
v  -1.2042 0.5020 -0.3645
v  -1.2011 0.4836 -0.3453
v  -1.2068 0.4679 -0.3243
v  -1.2206 0.4568 -0.3042
v  -1.2407 0.4516 -0.2873
v  -1.2648 0.4530 -0.2757
v  -1.2900 0.4607 -0.2708
v  -1.3132 0.4739 -0.2732
v  -1.3317 0.4909 -0.2826
v  -1.3431 0.5097 -0.2978
v  -1.5868 0.0075 -0.8043
v  -1.5919 -0.0064 -0.7857
v  -1.5746 0.0174 -0.8222
v  -1.5568 0.0220 -0.8371
v  -1.5354 0.0208 -0.8474
v  -1.5130 0.0139 -0.8517
v  -1.4924 0.0022 -0.8496
v  -1.4761 -0.0129 -0.8413
v  -1.4660 -0.0296 -0.8278
v  -1.4633 -0.0459 -0.8107
v  -1.4683 -0.0598 -0.7921
v  -1.4805 -0.0696 -0.7742
v  -1.4984 -0.0742 -0.7593
v  -1.5198 -0.0730 -0.7490
v  -1.5421 -0.0662 -0.7447
v  -1.5627 -0.0545 -0.7468
v  -1.5790 -0.0394 -0.7551
v  -1.5892 -0.0227 -0.7686
v  -1.6174 -0.0724 -0.8709
v  -1.6219 -0.0849 -0.8542
v  -1.6064 -0.0635 -0.8869
v  -1.5903 -0.0594 -0.9004
v  -1.5711 -0.0605 -0.9096
v  -1.5510 -0.0666 -0.9135
v  -1.5325 -0.0771 -0.9116
v  -1.5178 -0.0907 -0.9041
v  -1.5087 -0.1057 -0.8920
v  -1.5063 -0.1204 -0.8766
v  -1.5108 -0.1329 -0.8599
v  -1.5218 -0.1417 -0.8438
v  -1.5379 -0.1459 -0.8304
v  -1.5571 -0.1448 -0.8212
v  -1.5772 -0.1387 -0.8173
v  -1.5957 -0.1281 -0.8192
v  -1.6104 -0.1146 -0.8266
v  -1.6195 -0.0995 -0.8388
v  -1.6290 -0.1314 -0.9149
v  -1.6325 -0.1409 -0.9023
v  -1.6207 -0.1247 -0.9270
v  -1.6086 -0.1216 -0.9372
v  -1.5941 -0.1224 -0.9442
v  -1.5789 -0.1271 -0.9471
v  -1.5649 -0.1350 -0.9457
v  -1.5538 -0.1453 -0.9400
v  -1.5469 -0.1567 -0.9308
v  -1.5450 -0.1677 -0.9192
v  -1.5485 -0.1772 -0.9066
v  -1.5568 -0.1839 -0.8945
v  -1.5689 -0.1870 -0.8843
v  -1.5835 -0.1862 -0.8773
v  -1.5986 -0.1815 -0.8744
v  -1.6126 -0.1736 -0.8758
v  -1.6237 -0.1633 -0.8815
v  -1.6306 -0.1520 -0.8906
v  -1.6248 -0.1795 -0.9442
v  -1.6264 -0.1839 -0.9383
v  -1.6209 -0.1763 -0.9499
v  -1.6152 -0.1748 -0.9547
v  -1.6084 -0.1752 -0.9580
v  -1.6012 -0.1774 -0.9594
v  -1.5947 -0.1811 -0.9587
v  -1.5894 -0.1860 -0.9560
v  -1.5862 -0.1913 -0.9517
v  -1.5853 -0.1965 -0.9463
v  -1.5870 -0.2010 -0.9403
v  -1.5908 -0.2041 -0.9346
v  -1.5966 -0.2056 -0.9298
v  -1.6034 -0.2052 -0.9265
v  -1.6105 -0.2030 -0.9252
v  -1.6171 -0.1993 -0.9258
v  -1.6223 -0.1944 -0.9285
v  -1.6256 -0.1891 -0.9328
# 144 vertices

vn -0.7464 0.4510 0.4894
vn -0.8207 0.5713 -0.0110
vn -0.7757 0.5887 0.2276
vn -0.6729 0.4460 0.5902
vn -0.6042 0.4855 -0.6318
vn -0.7001 0.6094 -0.3721
vn -0.2613 0.2641 -0.9284
vn -0.3676 0.3983 -0.8404
vn -0.0163 0.0839 -0.9963
vn -0.0599 0.1656 -0.9844
vn 0.1469 -0.0483 -0.9880
vn 0.1392 -0.0005 -0.9903
vn 0.2666 -0.1553 -0.9512
vn 0.2770 -0.1261 -0.9526
vn 0.3649 -0.2532 -0.8960
vn 0.3876 -0.2365 -0.8910
vn 0.4545 -0.3539 -0.8174
vn 0.4894 -0.3493 -0.7991
vn 0.5426 -0.4687 -0.6971
vn 0.5924 -0.4803 -0.6469
vn 0.6267 -0.6071 -0.4885
vn 0.6852 -0.6351 -0.3565
vn 0.6604 -0.7452 -0.0924
vn 0.6629 -0.7269 0.1795
vn 0.4820 -0.7112 0.5117
vn 0.3825 -0.5602 0.7347
vn 0.1208 -0.4227 0.8982
vn 0.0551 -0.2849 0.9570
vn -0.1494 -0.1593 0.9759
vn -0.1642 -0.0800 0.9832
vn -0.3268 0.0230 0.9448
vn -0.3143 0.0676 0.9469
vn -0.4672 0.1663 0.8684
vn -0.4357 0.1904 0.8797
vn -0.6031 0.3027 0.7380
vn -0.5513 0.3110 0.7742
vn -0.6852 0.6351 0.3565
vn -0.5924 0.4803 0.6469
vn -0.6629 0.7269 -0.1795
vn -0.3825 0.5602 -0.7347
vn -0.0551 0.2849 -0.9570
vn 0.1642 0.0800 -0.9832
vn 0.3143 -0.0676 -0.9469
vn 0.4357 -0.1904 -0.8797
vn 0.5513 -0.3110 -0.7742
vn 0.6729 -0.4460 -0.5902
vn 0.7757 -0.5886 -0.2276
vn 0.7001 -0.6094 0.3721
vn 0.3676 -0.3983 0.8404
vn 0.0599 -0.1656 0.9844
vn -0.1392 0.0005 0.9903
vn -0.2770 0.1261 0.9526
vn -0.3876 0.2365 0.8910
vn -0.4894 0.3493 0.7991
vn -0.7090 0.6338 0.3092
vn -0.6132 0.4799 0.6274
vn -0.6666 0.7125 -0.2189
vn -0.3942 0.5729 -0.7186
vn -0.0677 0.3055 -0.9498
vn 0.1591 0.0898 -0.9832
vn 0.3131 -0.0643 -0.9475
vn 0.4374 -0.1904 -0.8789
vn 0.5568 -0.3131 -0.7694
vn 0.6835 -0.4499 -0.5748
vn 0.7828 -0.5901 -0.1976
vn 0.6984 -0.6190 0.3593
vn 0.3875 -0.4432 0.8084
vn 0.0707 -0.2001 0.9772
vn -0.1386 -0.0186 0.9902
vn -0.2815 0.1151 0.9526
vn -0.3959 0.2299 0.8890
vn -0.5028 0.3459 0.7922
vn -0.7847 0.5874 0.1981
vn -0.6844 0.4476 0.5755
vn -0.7002 0.6100 -0.3711
vn -0.3823 0.4226 -0.8217
vn -0.0686 0.1839 -0.9806
vn 0.1370 0.0087 -0.9905
vn 0.2779 -0.1216 -0.9529
vn 0.3907 -0.2345 -0.8901
vn 0.4954 -0.3492 -0.7954
vn 0.6027 -0.4823 -0.6357
vn 0.6972 -0.6372 -0.3284
vn 0.6627 -0.7217 0.1999
vn 0.3919 -0.5772 0.7164
vn 0.0649 -0.3059 0.9498
vn -0.1611 -0.0909 0.9827
vn -0.3148 0.0626 0.9471
vn -0.4389 0.1885 0.8785
vn -0.5581 0.3111 0.7693
vn -0.8811 0.4725 -0.0206
vn -0.8157 0.3726 0.4424
vn -0.7091 0.4450 -0.5470
vn -0.3652 0.2671 -0.8918
vn -0.0749 0.0755 -0.9943
vn 0.1119 -0.0656 -0.9916
vn 0.2411 -0.1764 -0.9543
vn 0.3434 -0.2775 -0.8972
vn 0.4351 -0.3841 -0.8143
vn 0.5247 -0.5111 -0.6808
vn 0.6033 -0.6698 -0.4329
vn 0.5905 -0.8069 0.0139
vn 0.3772 -0.7629 0.5250
vn 0.0587 -0.5158 0.8547
vn -0.1986 -0.2438 0.9493
vn -0.3757 -0.0454 0.9256
vn -0.5205 0.1051 0.8474
vn -0.6654 0.2392 0.7071
vn -0.9091 0.1660 -0.3821
vn -0.9936 0.0971 0.0583
vn -0.6300 0.1289 -0.7659
vn -0.3055 0.0142 -0.9521
vn -0.0767 -0.0933 -0.9927
vn 0.0739 -0.1819 -0.9805
vn 0.1814 -0.2621 -0.9478
vn 0.2652 -0.3431 -0.9011
vn 0.3351 -0.4332 -0.8367
vn 0.3948 -0.5430 -0.7411
vn 0.4385 -0.6854 -0.5813
vn 0.4283 -0.8555 -0.2909
vn 0.2768 -0.9517 0.1325
vn -0.0029 -0.8674 0.4976
vn -0.2950 -0.6421 0.7076
vn -0.5331 -0.3851 0.7533
vn -0.7304 -0.1778 0.6595
vn -0.9028 -0.0228 0.4294
vn -0.8289 -0.0865 -0.5526
vn -0.9843 -0.1388 -0.1087
vn -0.5300 -0.0954 -0.8426
vn -0.2673 -0.1383 -0.9536
vn -0.0822 -0.1924 -0.9779
vn 0.0476 -0.2508 -0.9669
vn 0.1427 -0.3132 -0.9389
vn 0.2156 -0.3822 -0.8986
vn 0.2721 -0.4622 -0.8440
vn 0.3123 -0.5600 -0.7673
vn 0.3284 -0.6842 -0.6512
vn 0.2948 -0.8373 -0.4604
vn 0.1570 -0.9763 -0.1487
vn -0.1135 -0.9653 0.2351
vn -0.4055 -0.7734 0.4872
vn -0.6283 -0.5561 0.5441
vn -0.7974 -0.3830 0.4662
vn -0.9340 -0.2442 0.2608
vn 0.0661 0.5629 0.8239
vn -0.0661 -0.5629 -0.8239
vn -0.0661 -0.5630 -0.8238
vn -0.0662 -0.5629 -0.8238
vn -0.0662 -0.5629 -0.8239
# 149 vertex normals

vt 0.7500 0.0000 1.0000
vt 0.8056 0.0000 1.0000
vt 0.8056 0.1429 1.0000
vt 0.7500 0.1429 1.0000
vt 0.8611 0.0000 1.0000
vt 0.8611 0.1429 1.0000
vt 0.9167 0.0000 1.0000
vt 0.9167 0.1429 1.0000
vt 0.9722 0.0000 1.0000
vt 0.9722 0.1429 1.0000
vt 1.0278 0.0000 1.0000
vt 1.0278 0.1429 1.0000
vt 0.0278 0.0000 1.0000
vt 0.0833 0.0000 1.0000
vt 0.0833 0.1429 1.0000
vt 0.0278 0.1429 1.0000
vt 0.1389 0.0000 1.0000
vt 0.1389 0.1429 1.0000
vt 0.1944 0.0000 1.0000
vt 0.1944 0.1429 1.0000
vt 0.2500 0.0000 1.0000
vt 0.2500 0.1429 1.0000
vt 0.3056 0.0000 1.0000
vt 0.3056 0.1429 1.0000
vt 0.3611 0.0000 1.0000
vt 0.3611 0.1429 1.0000
vt 0.4167 0.0000 1.0000
vt 0.4167 0.1429 1.0000
vt 0.4722 0.0000 1.0000
vt 0.4722 0.1429 1.0000
vt 0.5278 0.0000 1.0000
vt 0.5278 0.1429 1.0000
vt 0.5833 0.0000 1.0000
vt 0.5833 0.1429 1.0000
vt 0.6389 0.0000 1.0000
vt 0.6389 0.1429 1.0000
vt 0.6944 0.0000 1.0000
vt 0.6944 0.1429 1.0000
vt 0.8056 0.2857 1.0000
vt 0.7500 0.2857 1.0000
vt 0.8611 0.2857 1.0000
vt 0.9167 0.2857 1.0000
vt 0.9722 0.2857 1.0000
vt 1.0278 0.2857 1.0000
vt 0.0833 0.2857 1.0000
vt 0.0278 0.2857 1.0000
vt 0.1389 0.2857 1.0000
vt 0.1944 0.2857 1.0000
vt 0.2500 0.2857 1.0000
vt 0.3056 0.2857 1.0000
vt 0.3611 0.2857 1.0000
vt 0.4167 0.2857 1.0000
vt 0.4722 0.2857 1.0000
vt 0.5278 0.2857 1.0000
vt 0.5833 0.2857 1.0000
vt 0.6389 0.2857 1.0000
vt 0.6944 0.2857 1.0000
vt 0.8056 0.4286 1.0000
vt 0.7500 0.4286 1.0000
vt 0.8611 0.4286 1.0000
vt 0.9167 0.4286 1.0000
vt 0.9722 0.4286 1.0000
vt 1.0278 0.4286 1.0000
vt 0.0833 0.4286 1.0000
vt 0.0278 0.4286 1.0000
vt 0.1389 0.4286 1.0000
vt 0.1944 0.4286 1.0000
vt 0.2500 0.4286 1.0000
vt 0.3056 0.4286 1.0000
vt 0.3611 0.4286 1.0000
vt 0.4167 0.4286 1.0000
vt 0.4722 0.4286 1.0000
vt 0.5278 0.4286 1.0000
vt 0.5833 0.4286 1.0000
vt 0.6389 0.4286 1.0000
vt 0.6944 0.4286 1.0000
vt 0.8056 0.5714 1.0000
vt 0.7500 0.5714 1.0000
vt 0.8611 0.5714 1.0000
vt 0.9167 0.5714 1.0000
vt 0.9722 0.5714 1.0000
vt 1.0278 0.5714 1.0000
vt 0.0833 0.5714 1.0000
vt 0.0278 0.5714 1.0000
vt 0.1389 0.5714 1.0000
vt 0.1944 0.5714 1.0000
vt 0.2500 0.5714 1.0000
vt 0.3056 0.5714 1.0000
vt 0.3611 0.5714 1.0000
vt 0.4167 0.5714 1.0000
vt 0.4722 0.5714 1.0000
vt 0.5278 0.5714 1.0000
vt 0.5833 0.5714 1.0000
vt 0.6389 0.5714 1.0000
vt 0.6944 0.5714 1.0000
vt 0.8056 0.7143 1.0000
vt 0.7500 0.7143 1.0000
vt 0.8611 0.7143 1.0000
vt 0.9167 0.7143 1.0000
vt 0.9722 0.7143 1.0000
vt 1.0278 0.7143 1.0000
vt 0.0833 0.7143 1.0000
vt 0.0278 0.7143 1.0000
vt 0.1389 0.7143 1.0000
vt 0.1944 0.7143 1.0000
vt 0.2500 0.7143 1.0000
vt 0.3056 0.7143 1.0000
vt 0.3611 0.7143 1.0000
vt 0.4167 0.7143 1.0000
vt 0.4722 0.7143 1.0000
vt 0.5278 0.7143 1.0000
vt 0.5833 0.7143 1.0000
vt 0.6389 0.7143 1.0000
vt 0.6944 0.7143 1.0000
vt 0.8056 0.8571 1.0000
vt 0.7500 0.8571 1.0000
vt 0.8611 0.8571 1.0000
vt 0.9167 0.8571 1.0000
vt 0.9722 0.8571 1.0000
vt 1.0278 0.8571 1.0000
vt 0.0833 0.8571 1.0000
vt 0.0278 0.8571 1.0000
vt 0.1389 0.8571 1.0000
vt 0.1944 0.8571 1.0000
vt 0.2500 0.8571 1.0000
vt 0.3056 0.8571 1.0000
vt 0.3611 0.8571 1.0000
vt 0.4167 0.8571 1.0000
vt 0.4722 0.8571 1.0000
vt 0.5278 0.8571 1.0000
vt 0.5833 0.8571 1.0000
vt 0.6389 0.8571 1.0000
vt 0.6944 0.8571 1.0000
vt 0.8056 1.0000 1.0000
vt 0.7500 1.0000 1.0000
vt 0.8611 1.0000 1.0000
vt 0.9167 1.0000 1.0000
vt 0.9722 1.0000 1.0000
vt 1.0278 1.0000 1.0000
vt 0.0833 1.0000 1.0000
vt 0.0278 1.0000 1.0000
vt 0.1389 1.0000 1.0000
vt 0.1944 1.0000 1.0000
vt 0.2500 1.0000 1.0000
vt 0.3056 1.0000 1.0000
vt 0.3611 1.0000 1.0000
vt 0.4167 1.0000 1.0000
vt 0.4722 1.0000 1.0000
vt 0.5278 1.0000 1.0000
vt 0.5833 1.0000 1.0000
vt 0.6389 1.0000 1.0000
vt 0.6944 1.0000 1.0000
vt 0.6710 0.9698 -0.2500
vt 0.8214 0.8830 -0.2500
vt 0.9330 0.7500 -0.2500
vt 0.9924 0.5868 -0.2500
vt 0.9924 0.4132 -0.2500
vt 0.9330 0.2500 -0.2500
vt 0.8214 0.1170 -0.2500
vt 0.6710 0.0302 -0.2500
vt 0.5000 0.0000 -0.2500
vt 0.3290 0.0302 -0.2500
vt 0.1786 0.1170 -0.2500
vt 0.0670 0.2500 -0.2500
vt 0.0076 0.4132 -0.2500
vt 0.0076 0.5868 -0.2500
vt 0.0670 0.7500 -0.2500
vt 0.1786 0.8830 -0.2500
vt 0.3290 0.9698 -0.2500
vt 0.5000 1.0000 -0.2500
vt 0.5000 1.0000 0.2500
vt 0.3290 0.9698 0.2500
vt 0.1786 0.8830 0.2500
vt 0.0670 0.7500 0.2500
vt 0.0076 0.5868 0.2500
vt 0.0076 0.4132 0.2500
vt 0.0670 0.2500 0.2500
vt 0.1786 0.1170 0.2500
vt 0.3290 0.0302 0.2500
vt 0.5000 0.0000 0.2500
vt 0.6710 0.0302 0.2500
vt 0.8214 0.1170 0.2500
vt 0.9330 0.2500 0.2500
vt 0.9924 0.4132 0.2500
vt 0.9924 0.5868 0.2500
vt 0.9330 0.7500 0.2500
vt 0.8214 0.8830 0.2500
vt 0.6710 0.9698 0.2500
# 188 texture coords

g Cylinder001
s 8
f 1/1/1 2/2/2 3/3/3 4/4/4 
f 2/2/2 5/5/5 6/6/6 3/3/3 
f 5/5/5 7/7/7 8/8/8 6/6/6 
f 7/7/7 9/9/9 10/10/10 8/8/8 
f 9/9/9 11/11/11 12/12/12 10/10/10 
f 11/13/11 13/14/13 14/15/14 12/16/12 
f 13/14/13 15/17/15 16/18/16 14/15/14 
f 15/17/15 17/19/17 18/20/18 16/18/16 
f 17/19/17 19/21/19 20/22/20 18/20/18 
f 19/21/19 21/23/21 22/24/22 20/22/20 
f 21/23/21 23/25/23 24/26/24 22/24/22 
f 23/25/23 25/27/25 26/28/26 24/26/24 
f 25/27/25 27/29/27 28/30/28 26/28/26 
f 27/29/27 29/31/29 30/32/30 28/30/28 
f 29/31/29 31/33/31 32/34/32 30/32/30 
f 31/33/31 33/35/33 34/36/34 32/34/32 
f 33/35/33 35/37/35 36/38/36 34/36/34 
f 35/37/35 1/1/1 4/4/4 36/38/36 
f 4/4/4 3/3/3 37/39/37 38/40/38 
f 3/3/3 6/6/6 39/41/39 37/39/37 
f 6/6/6 8/8/8 40/42/40 39/41/39 
f 8/8/8 10/10/10 41/43/41 40/42/40 
f 10/10/10 12/12/12 42/44/42 41/43/41 
f 12/16/12 14/15/14 43/45/43 42/46/42 
f 14/15/14 16/18/16 44/47/44 43/45/43 
f 16/18/16 18/20/18 45/48/45 44/47/44 
f 18/20/18 20/22/20 46/49/46 45/48/45 
f 20/22/20 22/24/22 47/50/47 46/49/46 
f 22/24/22 24/26/24 48/51/48 47/50/47 
f 24/26/24 26/28/26 49/52/49 48/51/48 
f 26/28/26 28/30/28 50/53/50 49/52/49 
f 28/30/28 30/32/30 51/54/51 50/53/50 
f 30/32/30 32/34/32 52/55/52 51/54/51 
f 32/34/32 34/36/34 53/56/53 52/55/52 
f 34/36/34 36/38/36 54/57/54 53/56/53 
f 36/38/36 4/4/4 38/40/38 54/57/54 
f 38/40/38 37/39/37 55/58/55 56/59/56 
f 37/39/37 39/41/39 57/60/57 55/58/55 
f 39/41/39 40/42/40 58/61/58 57/60/57 
f 40/42/40 41/43/41 59/62/59 58/61/58 
f 41/43/41 42/44/42 60/63/60 59/62/59 
f 42/46/42 43/45/43 61/64/61 60/65/60 
f 43/45/43 44/47/44 62/66/62 61/64/61 
f 44/47/44 45/48/45 63/67/63 62/66/62 
f 45/48/45 46/49/46 64/68/64 63/67/63 
f 46/49/46 47/50/47 65/69/65 64/68/64 
f 47/50/47 48/51/48 66/70/66 65/69/65 
f 48/51/48 49/52/49 67/71/67 66/70/66 
f 49/52/49 50/53/50 68/72/68 67/71/67 
f 50/53/50 51/54/51 69/73/69 68/72/68 
f 51/54/51 52/55/52 70/74/70 69/73/69 
f 52/55/52 53/56/53 71/75/71 70/74/70 
f 53/56/53 54/57/54 72/76/72 71/75/71 
f 54/57/54 38/40/38 56/59/56 72/76/72 
f 56/59/56 55/58/55 73/77/73 74/78/74 
f 55/58/55 57/60/57 75/79/75 73/77/73 
f 57/60/57 58/61/58 76/80/76 75/79/75 
f 58/61/58 59/62/59 77/81/77 76/80/76 
f 59/62/59 60/63/60 78/82/78 77/81/77 
f 60/65/60 61/64/61 79/83/79 78/84/78 
f 61/64/61 62/66/62 80/85/80 79/83/79 
f 62/66/62 63/67/63 81/86/81 80/85/80 
f 63/67/63 64/68/64 82/87/82 81/86/81 
f 64/68/64 65/69/65 83/88/83 82/87/82 
f 65/69/65 66/70/66 84/89/84 83/88/83 
f 66/70/66 67/71/67 85/90/85 84/89/84 
f 67/71/67 68/72/68 86/91/86 85/90/85 
f 68/72/68 69/73/69 87/92/87 86/91/86 
f 69/73/69 70/74/70 88/93/88 87/92/87 
f 70/74/70 71/75/71 89/94/89 88/93/88 
f 71/75/71 72/76/72 90/95/90 89/94/89 
f 72/76/72 56/59/56 74/78/74 90/95/90 
f 74/78/74 73/77/73 91/96/91 92/97/92 
f 73/77/73 75/79/75 93/98/93 91/96/91 
f 75/79/75 76/80/76 94/99/94 93/98/93 
f 76/80/76 77/81/77 95/100/95 94/99/94 
f 77/81/77 78/82/78 96/101/96 95/100/95 
f 78/84/78 79/83/79 97/102/97 96/103/96 
f 79/83/79 80/85/80 98/104/98 97/102/97 
f 80/85/80 81/86/81 99/105/99 98/104/98 
f 81/86/81 82/87/82 100/106/100 99/105/99 
f 82/87/82 83/88/83 101/107/101 100/106/100 
f 83/88/83 84/89/84 102/108/102 101/107/101 
f 84/89/84 85/90/85 103/109/103 102/108/102 
f 85/90/85 86/91/86 104/110/104 103/109/103 
f 86/91/86 87/92/87 105/111/105 104/110/104 
f 87/92/87 88/93/88 106/112/106 105/111/105 
f 88/93/88 89/94/89 107/113/107 106/112/106 
f 89/94/89 90/95/90 108/114/108 107/113/107 
f 90/95/90 74/78/74 92/97/92 108/114/108 
f 92/97/92 91/96/91 109/115/109 110/116/110 
f 91/96/91 93/98/93 111/117/111 109/115/109 
f 93/98/93 94/99/94 112/118/112 111/117/111 
f 94/99/94 95/100/95 113/119/113 112/118/112 
f 95/100/95 96/101/96 114/120/114 113/119/113 
f 96/103/96 97/102/97 115/121/115 114/122/114 
f 97/102/97 98/104/98 116/123/116 115/121/115 
f 98/104/98 99/105/99 117/124/117 116/123/116 
f 99/105/99 100/106/100 118/125/118 117/124/117 
f 100/106/100 101/107/101 119/126/119 118/125/118 
f 101/107/101 102/108/102 120/127/120 119/126/119 
f 102/108/102 103/109/103 121/128/121 120/127/120 
f 103/109/103 104/110/104 122/129/122 121/128/121 
f 104/110/104 105/111/105 123/130/123 122/129/122 
f 105/111/105 106/112/106 124/131/124 123/130/123 
f 106/112/106 107/113/107 125/132/125 124/131/124 
f 107/113/107 108/114/108 126/133/126 125/132/125 
f 108/114/108 92/97/92 110/116/110 126/133/126 
f 110/116/110 109/115/109 127/134/127 128/135/128 
f 109/115/109 111/117/111 129/136/129 127/134/127 
f 111/117/111 112/118/112 130/137/130 129/136/129 
f 112/118/112 113/119/113 131/138/131 130/137/130 
f 113/119/113 114/120/114 132/139/132 131/138/131 
f 114/122/114 115/121/115 133/140/133 132/141/132 
f 115/121/115 116/123/116 134/142/134 133/140/133 
f 116/123/116 117/124/117 135/143/135 134/142/134 
f 117/124/117 118/125/118 136/144/136 135/143/135 
f 118/125/118 119/126/119 137/145/137 136/144/136 
f 119/126/119 120/127/120 138/146/138 137/145/137 
f 120/127/120 121/128/121 139/147/139 138/146/138 
f 121/128/121 122/129/122 140/148/140 139/147/139 
f 122/129/122 123/130/123 141/149/141 140/148/140 
f 123/130/123 124/131/124 142/150/142 141/149/141 
f 124/131/124 125/132/125 143/151/143 142/150/142 
f 125/132/125 126/133/126 144/152/144 143/151/143 
f 126/133/126 110/116/110 128/135/128 144/152/144 
s 1
f 35/153/145 33/154/145 31/155/145 29/156/145 27/157/145 25/158/145 23/159/145 21/160/145 19/161/145 17/162/145 15/163/145 13/164/145 11/165/145 9/166/145 7/167/145 5/168/145 2/169/145 1/170/145 
f 128/171/146 127/172/146 129/173/146 130/174/146 131/175/146 132/176/146 133/177/147 134/178/146 135/179/148 136/180/146 137/181/149 138/182/146 139/183/146 140/184/146 141/185/146 142/186/146 143/187/146 144/188/146 
# 128 polygons

