# 3ds Max Wavefront OBJ Exporter v0.97b - (c)2007 guruware
# File Created: 08.12.2016 18:55:30

#
# object Box001
#

v  -7.5807 0.4113 -1.7654
v  7.5880 0.4113 -1.7654
v  7.5880 4.1003 -1.7654
v  -7.5807 4.1003 -1.7654
v  11.0368 10.3055 0.0000
v  -11.0295 10.3055 0.0000
v  -7.5807 0.4113 -9.5300
v  -7.5807 4.1003 -9.5300
v  7.5880 4.1003 -9.5300
v  7.5880 0.4113 -9.5300
v  -11.0295 10.3055 -11.2954
v  11.0368 10.3055 -11.2954
v  -7.5807 0.4113 -5.6477
v  7.5880 0.4113 -5.6477
v  7.5880 4.1003 -5.6477
v  11.0368 10.3055 -5.6477
v  -11.0295 10.3055 -5.6477
v  -7.5807 4.1003 -5.6477
# 18 vertices

vn 0.0000 0.0000 1.0000
vn 0.0000 -0.1568 0.9876
vn 0.0000 -0.2736 0.9618
vn 0.0000 0.0000 -1.0000
vn 0.0000 -0.1568 -0.9876
vn 0.0000 -0.2736 -0.9618
vn 0.0000 -1.0000 0.0000
vn 1.0000 0.0000 0.0000
vn 0.9680 -0.2509 0.0000
vn 0.9632 -0.2689 0.0000
vn 0.8741 -0.4858 0.0000
vn 0.0000 1.0000 0.0000
vn -0.8741 -0.4858 0.0000
vn -0.9680 -0.2509 0.0000
vn -0.9632 -0.2689 0.0000
vn -1.0000 0.0000 0.0000
# 16 vertex normals

vt 1.0000 0.0000 0.0000
vt 0.0000 0.0000 0.0000
vt 0.0000 0.5000 0.0000
vt 1.0000 0.5000 0.0000
vt 0.0000 1.0000 0.0000
vt 1.0000 1.0000 0.0000
vt 0.5000 0.5000 0.0000
vt 0.5000 0.0000 0.0000
vt 0.5000 1.0000 0.0000
# 9 texture coords

g Box001
s 2
f 1/1/1 2/2/1 3/3/2 4/4/2 
f 4/4/2 3/3/2 5/5/3 6/6/3 
s 4
f 7/2/4 8/3/5 9/4/5 10/1/4 
f 8/3/5 11/5/6 12/6/6 9/4/5 
s 8
f 1/2/7 13/3/7 14/4/7 2/1/7 
f 13/3/7 7/5/7 10/6/7 14/4/7 
s 16
f 2/2/8 14/3/8 15/7/9 3/8/10 
f 3/8/10 15/7/9 16/4/11 5/1/11 
f 14/3/8 10/5/8 9/9/10 15/7/9 
f 15/7/9 9/9/10 12/6/11 16/4/11 
s 32
f 5/2/12 16/3/12 17/4/12 6/1/12 
f 16/3/12 12/5/12 11/6/12 17/4/12 
s 64
f 6/2/13 17/3/13 18/7/14 4/8/15 
f 4/8/15 18/7/14 13/4/16 1/1/16 
f 17/3/13 11/5/13 8/9/15 18/7/14 
f 18/7/14 8/9/15 7/6/16 13/4/16 
# 16 polygons

