# 3ds Max Wavefront OBJ Exporter v0.97b - (c)2007 guruware
# File Created: 07.12.2016 16:14:20

#
# object Box001
#

v  -4.1624 -5.7614 0.0000
v  -4.1624 -3.6225 0.0000
v  3.1923 -3.6225 0.0000
v  3.1923 -5.7614 0.0000
v  -4.1624 -1.4835 0.0000
v  3.1923 -1.4835 0.0000
v  -4.1624 0.6554 0.0000
v  3.1923 0.6554 0.0000
v  -4.1624 2.7943 0.0000
v  3.1923 2.7943 0.0000
v  -4.1624 -5.7614 1.7195
v  3.1923 -5.7614 1.7195
v  3.1923 -3.6225 1.7353
v  -4.1624 -3.6225 1.6534
v  3.1923 -1.4835 1.0850
v  -4.1624 -1.4835 1.0850
v  3.1923 0.6554 1.5713
v  -4.1624 0.6554 1.7387
v  3.1923 2.7943 1.7300
v  -4.1624 2.7943 1.7300
# 20 vertices

vn 0.0000 0.0000 -1.0000
vn -0.0091 0.0240 0.9997
vn 0.0000 -0.0074 1.0000
vn -0.0064 0.1466 0.9892
vn -0.0066 0.1482 0.9889
vn -0.0045 0.0325 0.9995
vn 0.0092 -0.0117 0.9999
vn 0.0134 -0.1552 0.9878
vn 0.0131 -0.1524 0.9882
vn 0.0186 -0.0600 0.9980
vn 0.0000 0.0041 1.0000
vn 0.0000 -1.0000 0.0000
vn 1.0000 0.0000 0.0000
vn 0.0000 1.0000 0.0000
vn -1.0000 0.0000 0.0000
# 15 vertex normals

vt 0.0200 0.4420 0.0000
vt 0.1381 0.4420 0.0000
vt 0.1381 0.8482 0.0000
vt 0.0200 0.8482 0.0000
vt 0.2563 0.4420 0.0000
vt 0.2563 0.8482 0.0000
vt 0.3744 0.4420 0.0000
vt 0.3744 0.8482 0.0000
vt 0.4925 0.4420 0.0000
vt 0.4925 0.8482 0.0000
vt 0.0200 0.4262 0.0000
vt 0.0200 0.0200 0.0000
vt 0.1381 0.0200 0.0000
vt 0.1382 0.4262 0.0000
vt 0.2616 0.0204 0.0000
vt 0.2604 0.4266 0.0000
vt 0.3828 0.0207 0.0000
vt 0.3840 0.4270 0.0000
vt 0.5012 0.0206 0.0000
vt 0.5021 0.4268 0.0000
vt 0.0200 0.8631 0.0000
vt 0.4262 0.8631 0.0000
vt 0.4262 0.9581 0.0000
vt 0.0200 0.9581 0.0000
vt 0.5075 0.5529 0.0000
vt 0.6256 0.5529 0.0000
vt 0.6256 0.6488 0.0000
vt 0.5075 0.6479 0.0000
vt 0.7437 0.5529 0.0000
vt 0.7437 0.6128 0.0000
vt 0.8619 0.5529 0.0000
vt 0.8619 0.6397 0.0000
vt 0.9800 0.5529 0.0000
vt 0.9800 0.6485 0.0000
vt 0.9232 0.1156 0.0000
vt 0.5170 0.1156 0.0000
vt 0.5170 0.0200 0.0000
vt 0.9232 0.0200 0.0000
vt 0.9800 0.5380 0.0000
vt 0.8619 0.5380 0.0000
vt 0.8619 0.4420 0.0000
vt 0.9800 0.4424 0.0000
vt 0.7437 0.5380 0.0000
vt 0.7437 0.4781 0.0000
vt 0.6256 0.5380 0.0000
vt 0.6256 0.4467 0.0000
vt 0.5075 0.5380 0.0000
vt 0.5075 0.4430 0.0000
# 48 texture coords

g Box001
s 2
f 1/1/1 2/2/1 3/3/1 4/4/1 
f 2/2/1 5/5/1 6/6/1 3/3/1 
f 5/5/1 7/7/1 8/8/1 6/6/1 
f 7/7/1 9/9/1 10/10/1 8/8/1 
s 4
f 11/11/2 12/12/3 13/13/4 14/14/5 
f 14/14/5 13/13/4 15/15/6 16/16/7 
f 16/16/7 15/15/6 17/17/8 18/18/9 
f 18/18/9 17/17/8 19/19/10 20/20/11 
s 8
f 1/21/12 4/22/12 12/23/12 11/24/12 
s 16
f 4/25/13 3/26/13 13/27/13 12/28/13 
f 3/26/13 6/29/13 15/30/13 13/27/13 
f 6/29/13 8/31/13 17/32/13 15/30/13 
f 8/31/13 10/33/13 19/34/13 17/32/13 
s 32
f 10/35/14 9/36/14 20/37/14 19/38/14 
s 64
f 9/39/15 7/40/15 18/41/15 20/42/15 
f 7/40/15 5/43/15 16/44/15 18/41/15 
f 5/43/15 2/45/15 14/46/15 16/44/15 
f 2/45/15 1/47/15 11/48/15 14/46/15 
# 18 polygons

