# 3ds Max Wavefront OBJ Exporter v0.97b - (c)2007 guruware
# File Created: 08.12.2016 16:33:56

#
# object Cylinder001
#

v  1.3515 1.0393 1.5864
v  1.3573 1.0644 1.5790
v  1.3114 1.0019 1.3447
v  1.3070 0.9829 1.3504
v  1.3715 1.0854 1.5702
v  1.3221 1.0178 1.3381
v  1.3922 1.0998 1.5612
v  1.3378 1.0287 1.3313
v  1.4170 1.1059 1.5531
v  1.3566 1.0334 1.3252
v  1.4429 1.1029 1.5468
v  1.3762 1.0311 1.3204
v  1.4667 1.0913 1.5431
v  1.3943 1.0223 1.3176
v  1.4856 1.0723 1.5424
v  1.4086 1.0079 1.3171
v  1.4974 1.0483 1.5449
v  1.4175 0.9897 1.3189
v  1.5005 1.0222 1.5502
v  1.4198 0.9700 1.3229
v  1.4946 0.9972 1.5576
v  1.4154 0.9510 1.3286
v  1.4804 0.9762 1.5664
v  1.4047 0.9351 1.3352
v  1.4597 0.9618 1.5754
v  1.3890 0.9242 1.3420
v  1.4349 0.9557 1.5835
v  1.3702 0.9196 1.3482
v  1.4090 0.9587 1.5898
v  1.3506 0.9218 1.3530
v  1.3852 0.9703 1.5935
v  1.3325 0.9307 1.3558
v  1.3663 0.9893 1.5942
v  1.3182 0.9450 1.3563
v  1.3546 1.0133 1.5917
v  1.3093 0.9632 1.3544
v  1.2488 0.9476 1.1131
v  1.2444 0.9286 1.1188
v  1.2596 0.9635 1.1065
v  1.2753 0.9744 1.0997
v  1.2941 0.9790 1.0935
v  1.3137 0.9768 1.0888
v  1.3317 0.9679 1.0860
v  1.3460 0.9536 1.0855
v  1.3549 0.9354 1.0873
v  1.3573 0.9156 1.0913
v  1.3528 0.8967 1.0970
v  1.3421 0.8808 1.1036
v  1.3264 0.8698 1.1104
v  1.3076 0.8652 1.1166
v  1.2880 0.8675 1.1213
v  1.2700 0.8763 1.1241
v  1.2556 0.8907 1.1246
v  1.2467 0.9088 1.1228
v  1.1696 0.9014 0.8841
v  1.1638 0.8764 0.8915
v  1.1838 0.9224 0.8753
v  1.2045 0.9368 0.8663
v  1.2293 0.9429 0.8582
v  1.2552 0.9399 0.8519
v  1.2790 0.9283 0.8482
v  1.2979 0.9093 0.8476
v  1.3097 0.8853 0.8500
v  1.3128 0.8592 0.8553
v  1.3069 0.8342 0.8628
v  1.2927 0.8132 0.8715
v  1.2720 0.7988 0.8805
v  1.2472 0.7927 0.8886
v  1.2213 0.7957 0.8949
v  1.1975 0.8073 0.8986
v  1.1786 0.8263 0.8993
v  1.1669 0.8503 0.8968
v  0.9861 0.7315 0.1748
v  0.9809 0.7093 0.1814
v  0.9987 0.7501 0.1670
v  1.0171 0.7629 0.1590
v  1.0391 0.7683 0.1518
v  1.0620 0.7657 0.1462
v  1.0831 0.7553 0.1430
v  1.0999 0.7385 0.1424
v  1.1103 0.7173 0.1446
v  1.1131 0.6941 0.1492
v  1.1079 0.6719 0.1559
v  1.0953 0.6533 0.1636
v  1.0769 0.6405 0.1716
v  1.0549 0.6351 0.1788
v  1.0320 0.6377 0.1844
v  1.0108 0.6481 0.1876
v  0.9941 0.6649 0.1882
v  0.9837 0.6862 0.1861
v  0.9648 0.7046 0.0719
v  0.9601 0.6846 0.0779
v  0.9761 0.7214 0.0650
v  0.9926 0.7329 0.0578
v  1.0124 0.7377 0.0513
v  1.0330 0.7353 0.0463
v  1.0520 0.7260 0.0434
v  1.0671 0.7109 0.0428
v  1.0764 0.6918 0.0448
v  1.0789 0.6710 0.0490
v  1.0742 0.6510 0.0550
v  1.0629 0.6343 0.0619
v  1.0464 0.6228 0.0691
v  1.0266 0.6179 0.0756
v  1.0060 0.6203 0.0806
v  0.9870 0.6296 0.0835
v  0.9719 0.6447 0.0841
v  0.9626 0.6638 0.0821
v  0.9595 0.6819 0.0011
v  0.9560 0.6668 0.0056
v  0.9681 0.6946 -0.0042
v  0.9806 0.7033 -0.0096
v  0.9955 0.7070 -0.0145
v  1.0111 0.7052 -0.0183
v  1.0255 0.6981 -0.0205
v  1.0369 0.6867 -0.0209
v  1.0439 0.6723 -0.0194
v  1.0458 0.6565 -0.0162
v  1.0423 0.6414 -0.0117
v  1.0337 0.6288 -0.0065
v  1.0212 0.6201 -0.0011
v  1.0063 0.6164 0.0038
v  0.9907 0.6182 0.0076
v  0.9763 0.6252 0.0099
v  0.9649 0.6367 0.0103
v  0.9579 0.6511 0.0088
v  0.9685 0.6600 -0.0501
v  0.9669 0.6529 -0.0480
v  0.9726 0.6660 -0.0526
v  0.9784 0.6700 -0.0551
v  0.9855 0.6718 -0.0574
v  0.9928 0.6709 -0.0592
v  0.9996 0.6676 -0.0603
v  1.0049 0.6622 -0.0604
v  1.0082 0.6555 -0.0597
v  1.0091 0.6481 -0.0582
v  1.0074 0.6410 -0.0561
v  1.0034 0.6350 -0.0537
v  0.9976 0.6309 -0.0511
v  0.9905 0.6292 -0.0488
v  0.9832 0.6300 -0.0470
v  0.9764 0.6333 -0.0460
v  0.9711 0.6387 -0.0458
v  0.9678 0.6455 -0.0465
# 144 vertices

vn -0.8013 0.0684 0.5944
vn -0.8539 0.4557 0.2514
vn -0.8241 0.3320 0.4589
vn -0.7337 0.0071 0.6795
vn -0.5965 0.7508 -0.2836
vn -0.7152 0.6988 -0.0094
vn -0.2233 0.7496 -0.6231
vn -0.3430 0.8055 -0.4832
vn 0.0364 0.6471 -0.7615
vn -0.0130 0.7058 -0.7083
vn 0.2071 0.5377 -0.8173
vn 0.1964 0.5778 -0.7922
vn 0.3311 0.4316 -0.8391
vn 0.3397 0.4563 -0.8224
vn 0.4321 0.3217 -0.8425
vn 0.4534 0.3328 -0.8269
vn 0.5234 0.1959 -0.8293
vn 0.5568 0.1895 -0.8088
vn 0.6115 0.0341 -0.7905
vn 0.6590 -0.0035 -0.7522
vn 0.6921 -0.1981 -0.6940
vn 0.7446 -0.2965 -0.5981
vn 0.7115 -0.5401 -0.4495
vn 0.6970 -0.6832 -0.2180
vn 0.4964 -0.8669 0.0453
vn 0.3745 -0.8756 0.3051
vn 0.0954 -0.8637 0.4950
vn 0.0176 -0.7869 0.6168
vn -0.1954 -0.6996 0.6873
vn -0.2157 -0.6396 0.7378
vn -0.3821 -0.5367 0.7523
vn -0.3727 -0.5014 0.7808
vn -0.5268 -0.3783 0.7612
vn -0.4977 -0.3646 0.7870
vn -0.6635 -0.1941 0.7226
vn -0.6145 -0.2074 0.7612
vn -0.7446 0.2965 0.5981
vn -0.6590 0.0035 0.7522
vn -0.6970 0.6832 0.2180
vn -0.3745 0.8756 -0.3051
vn -0.0176 0.7869 -0.6168
vn 0.2157 0.6396 -0.7378
vn 0.3727 0.5014 -0.7808
vn 0.4977 0.3646 -0.7870
vn 0.6145 0.2074 -0.7611
vn 0.7337 -0.0071 -0.6795
vn 0.8241 -0.3320 -0.4589
vn 0.7152 -0.6988 0.0094
vn 0.3430 -0.8055 0.4832
vn 0.0130 -0.7058 0.7083
vn -0.1964 -0.5778 0.7922
vn -0.3397 -0.4563 0.8224
vn -0.4534 -0.3328 0.8269
vn -0.5568 -0.1895 0.8088
vn -0.7654 0.3225 0.5569
vn -0.6786 0.0142 0.7344
vn -0.6975 0.6943 0.1774
vn -0.3879 0.8763 -0.2857
vn -0.0319 0.7993 -0.6001
vn 0.2100 0.6475 -0.7326
vn 0.3714 0.5044 -0.7796
vn 0.4993 0.3642 -0.7862
vn 0.6198 0.2030 -0.7580
vn 0.7436 -0.0190 -0.6683
vn 0.8295 -0.3504 -0.4349
vn 0.7148 -0.6993 -0.0067
vn 0.3676 -0.8231 0.4329
vn 0.0264 -0.7295 0.6835
vn -0.1946 -0.5933 0.7811
vn -0.3435 -0.4654 0.8158
vn -0.4612 -0.3372 0.8207
vn -0.5695 -0.1886 0.8001
vn -0.8313 0.3478 0.4335
vn -0.7443 0.0167 0.6676
vn -0.7154 0.6987 -0.0083
vn -0.3603 0.8142 -0.4553
vn -0.0230 0.7182 -0.6954
vn 0.1937 0.5854 -0.7872
vn 0.3403 0.4602 -0.8200
vn 0.4564 0.3340 -0.8247
vn 0.5626 0.1876 -0.8052
vn 0.6688 -0.0115 -0.7434
vn 0.7550 -0.3144 -0.5755
vn 0.6952 -0.6908 -0.1984
vn 0.3861 -0.8786 0.2813
vn 0.0291 -0.7997 0.5997
vn -0.2119 -0.6482 0.7314
vn -0.3729 -0.5055 0.7781
vn -0.5007 -0.3655 0.7846
vn -0.6210 -0.2046 0.7567
vn -0.9071 0.3798 0.1814
vn -0.8626 0.0305 0.5050
vn -0.7033 0.6665 -0.2471
vn -0.3291 0.7288 -0.6005
vn -0.0215 0.6379 -0.7698
vn 0.1735 0.5251 -0.8332
vn 0.3072 0.4157 -0.8560
vn 0.4124 0.3022 -0.8594
vn 0.5058 0.1691 -0.8459
vn 0.5955 -0.0102 -0.8033
vn 0.6696 -0.2819 -0.6871
vn 0.6397 -0.6533 -0.4048
vn 0.3946 -0.9187 0.0173
vn 0.0420 -0.9153 0.4006
vn -0.2374 -0.7539 0.6127
vn -0.4253 -0.5821 0.6931
vn -0.5747 -0.4169 0.7042
vn -0.7196 -0.2290 0.6555
vn -0.8941 0.3400 -0.2916
vn -0.9995 0.0264 0.0189
vn -0.5913 0.5381 -0.6007
vn -0.2497 0.5592 -0.7906
vn -0.0124 0.4997 -0.8661
vn 0.1426 0.4233 -0.8947
vn 0.2529 0.3411 -0.9054
vn 0.3390 0.2497 -0.9071
vn 0.4107 0.1402 -0.9009
vn 0.4717 -0.0035 -0.8817
vn 0.5151 -0.2114 -0.8307
vn 0.4990 -0.5188 -0.6941
vn 0.3297 -0.8461 -0.4189
vn 0.0242 -0.9949 -0.0977
vn -0.2936 -0.9392 0.1781
vn -0.5501 -0.7612 0.3434
vn -0.7545 -0.5417 0.3704
vn -0.9229 -0.2852 0.2586
vn -0.7879 0.2352 -0.5691
vn -0.9653 -0.0683 -0.2522
vn -0.4726 0.4022 -0.7842
vn -0.2017 0.4368 -0.8767
vn -0.0123 0.4103 -0.9119
vn 0.1200 0.3589 -0.9256
vn 0.2172 0.2937 -0.9309
vn 0.2920 0.2155 -0.9318
vn 0.3502 0.1197 -0.9290
vn 0.3922 -0.0037 -0.9199
vn 0.4094 -0.1718 -0.8960
vn 0.3748 -0.4080 -0.8325
vn 0.2283 -0.7049 -0.6716
vn -0.0643 -0.9241 -0.3768
vn -0.3823 -0.9200 -0.0861
vn -0.6216 -0.7805 0.0667
vn -0.7968 -0.5976 0.0892
vn -0.9298 -0.3679 -0.0089
vn -0.0187 -0.0197 0.9996
vn 0.0186 0.0197 -0.9996
vn 0.0187 0.0197 -0.9996
vn 0.0186 0.0196 -0.9996
# 148 vertex normals

vt 0.7500 0.0000 1.0000
vt 0.8056 0.0000 1.0000
vt 0.8056 0.1429 1.0000
vt 0.7500 0.1429 1.0000
vt 0.8611 0.0000 1.0000
vt 0.8611 0.1429 1.0000
vt 0.9167 0.0000 1.0000
vt 0.9167 0.1429 1.0000
vt 0.9722 0.0000 1.0000
vt 0.9722 0.1429 1.0000
vt 1.0278 0.0000 1.0000
vt 1.0278 0.1429 1.0000
vt 0.0278 0.0000 1.0000
vt 0.0833 0.0000 1.0000
vt 0.0833 0.1429 1.0000
vt 0.0278 0.1429 1.0000
vt 0.1389 0.0000 1.0000
vt 0.1389 0.1429 1.0000
vt 0.1944 0.0000 1.0000
vt 0.1944 0.1429 1.0000
vt 0.2500 0.0000 1.0000
vt 0.2500 0.1429 1.0000
vt 0.3056 0.0000 1.0000
vt 0.3056 0.1429 1.0000
vt 0.3611 0.0000 1.0000
vt 0.3611 0.1429 1.0000
vt 0.4167 0.0000 1.0000
vt 0.4167 0.1429 1.0000
vt 0.4722 0.0000 1.0000
vt 0.4722 0.1429 1.0000
vt 0.5278 0.0000 1.0000
vt 0.5278 0.1429 1.0000
vt 0.5833 0.0000 1.0000
vt 0.5833 0.1429 1.0000
vt 0.6389 0.0000 1.0000
vt 0.6389 0.1429 1.0000
vt 0.6944 0.0000 1.0000
vt 0.6944 0.1429 1.0000
vt 0.8056 0.2857 1.0000
vt 0.7500 0.2857 1.0000
vt 0.8611 0.2857 1.0000
vt 0.9167 0.2857 1.0000
vt 0.9722 0.2857 1.0000
vt 1.0278 0.2857 1.0000
vt 0.0833 0.2857 1.0000
vt 0.0278 0.2857 1.0000
vt 0.1389 0.2857 1.0000
vt 0.1944 0.2857 1.0000
vt 0.2500 0.2857 1.0000
vt 0.3056 0.2857 1.0000
vt 0.3611 0.2857 1.0000
vt 0.4167 0.2857 1.0000
vt 0.4722 0.2857 1.0000
vt 0.5278 0.2857 1.0000
vt 0.5833 0.2857 1.0000
vt 0.6389 0.2857 1.0000
vt 0.6944 0.2857 1.0000
vt 0.8056 0.4286 1.0000
vt 0.7500 0.4286 1.0000
vt 0.8611 0.4286 1.0000
vt 0.9167 0.4286 1.0000
vt 0.9722 0.4286 1.0000
vt 1.0278 0.4286 1.0000
vt 0.0833 0.4286 1.0000
vt 0.0278 0.4286 1.0000
vt 0.1389 0.4286 1.0000
vt 0.1944 0.4286 1.0000
vt 0.2500 0.4286 1.0000
vt 0.3056 0.4286 1.0000
vt 0.3611 0.4286 1.0000
vt 0.4167 0.4286 1.0000
vt 0.4722 0.4286 1.0000
vt 0.5278 0.4286 1.0000
vt 0.5833 0.4286 1.0000
vt 0.6389 0.4286 1.0000
vt 0.6944 0.4286 1.0000
vt 0.8056 0.5714 1.0000
vt 0.7500 0.5714 1.0000
vt 0.8611 0.5714 1.0000
vt 0.9167 0.5714 1.0000
vt 0.9722 0.5714 1.0000
vt 1.0278 0.5714 1.0000
vt 0.0833 0.5714 1.0000
vt 0.0278 0.5714 1.0000
vt 0.1389 0.5714 1.0000
vt 0.1944 0.5714 1.0000
vt 0.2500 0.5714 1.0000
vt 0.3056 0.5714 1.0000
vt 0.3611 0.5714 1.0000
vt 0.4167 0.5714 1.0000
vt 0.4722 0.5714 1.0000
vt 0.5278 0.5714 1.0000
vt 0.5833 0.5714 1.0000
vt 0.6389 0.5714 1.0000
vt 0.6944 0.5714 1.0000
vt 0.8056 0.7143 1.0000
vt 0.7500 0.7143 1.0000
vt 0.8611 0.7143 1.0000
vt 0.9167 0.7143 1.0000
vt 0.9722 0.7143 1.0000
vt 1.0278 0.7143 1.0000
vt 0.0833 0.7143 1.0000
vt 0.0278 0.7143 1.0000
vt 0.1389 0.7143 1.0000
vt 0.1944 0.7143 1.0000
vt 0.2500 0.7143 1.0000
vt 0.3056 0.7143 1.0000
vt 0.3611 0.7143 1.0000
vt 0.4167 0.7143 1.0000
vt 0.4722 0.7143 1.0000
vt 0.5278 0.7143 1.0000
vt 0.5833 0.7143 1.0000
vt 0.6389 0.7143 1.0000
vt 0.6944 0.7143 1.0000
vt 0.8056 0.8571 1.0000
vt 0.7500 0.8571 1.0000
vt 0.8611 0.8571 1.0000
vt 0.9167 0.8571 1.0000
vt 0.9722 0.8571 1.0000
vt 1.0278 0.8571 1.0000
vt 0.0833 0.8571 1.0000
vt 0.0278 0.8571 1.0000
vt 0.1389 0.8571 1.0000
vt 0.1944 0.8571 1.0000
vt 0.2500 0.8571 1.0000
vt 0.3056 0.8571 1.0000
vt 0.3611 0.8571 1.0000
vt 0.4167 0.8571 1.0000
vt 0.4722 0.8571 1.0000
vt 0.5278 0.8571 1.0000
vt 0.5833 0.8571 1.0000
vt 0.6389 0.8571 1.0000
vt 0.6944 0.8571 1.0000
vt 0.8056 1.0000 1.0000
vt 0.7500 1.0000 1.0000
vt 0.8611 1.0000 1.0000
vt 0.9167 1.0000 1.0000
vt 0.9722 1.0000 1.0000
vt 1.0278 1.0000 1.0000
vt 0.0833 1.0000 1.0000
vt 0.0278 1.0000 1.0000
vt 0.1389 1.0000 1.0000
vt 0.1944 1.0000 1.0000
vt 0.2500 1.0000 1.0000
vt 0.3056 1.0000 1.0000
vt 0.3611 1.0000 1.0000
vt 0.4167 1.0000 1.0000
vt 0.4722 1.0000 1.0000
vt 0.5278 1.0000 1.0000
vt 0.5833 1.0000 1.0000
vt 0.6389 1.0000 1.0000
vt 0.6944 1.0000 1.0000
vt 0.6710 0.9698 -0.2500
vt 0.8214 0.8830 -0.2500
vt 0.9330 0.7500 -0.2500
vt 0.9924 0.5868 -0.2500
vt 0.9924 0.4132 -0.2500
vt 0.9330 0.2500 -0.2500
vt 0.8214 0.1170 -0.2500
vt 0.6710 0.0302 -0.2500
vt 0.5000 0.0000 -0.2500
vt 0.3290 0.0302 -0.2500
vt 0.1786 0.1170 -0.2500
vt 0.0670 0.2500 -0.2500
vt 0.0076 0.4132 -0.2500
vt 0.0076 0.5868 -0.2500
vt 0.0670 0.7500 -0.2500
vt 0.1786 0.8830 -0.2500
vt 0.3290 0.9698 -0.2500
vt 0.5000 1.0000 -0.2500
vt 0.5000 1.0000 0.2500
vt 0.3290 0.9698 0.2500
vt 0.1786 0.8830 0.2500
vt 0.0670 0.7500 0.2500
vt 0.0076 0.5868 0.2500
vt 0.0076 0.4132 0.2500
vt 0.0670 0.2500 0.2500
vt 0.1786 0.1170 0.2500
vt 0.3290 0.0302 0.2500
vt 0.5000 0.0000 0.2500
vt 0.6710 0.0302 0.2500
vt 0.8214 0.1170 0.2500
vt 0.9330 0.2500 0.2500
vt 0.9924 0.4132 0.2500
vt 0.9924 0.5868 0.2500
vt 0.9330 0.7500 0.2500
vt 0.8214 0.8830 0.2500
vt 0.6710 0.9698 0.2500
# 188 texture coords

g Cylinder001
s 8
f 1/1/1 2/2/2 3/3/3 4/4/4 
f 2/2/2 5/5/5 6/6/6 3/3/3 
f 5/5/5 7/7/7 8/8/8 6/6/6 
f 7/7/7 9/9/9 10/10/10 8/8/8 
f 9/9/9 11/11/11 12/12/12 10/10/10 
f 11/13/11 13/14/13 14/15/14 12/16/12 
f 13/14/13 15/17/15 16/18/16 14/15/14 
f 15/17/15 17/19/17 18/20/18 16/18/16 
f 17/19/17 19/21/19 20/22/20 18/20/18 
f 19/21/19 21/23/21 22/24/22 20/22/20 
f 21/23/21 23/25/23 24/26/24 22/24/22 
f 23/25/23 25/27/25 26/28/26 24/26/24 
f 25/27/25 27/29/27 28/30/28 26/28/26 
f 27/29/27 29/31/29 30/32/30 28/30/28 
f 29/31/29 31/33/31 32/34/32 30/32/30 
f 31/33/31 33/35/33 34/36/34 32/34/32 
f 33/35/33 35/37/35 36/38/36 34/36/34 
f 35/37/35 1/1/1 4/4/4 36/38/36 
f 4/4/4 3/3/3 37/39/37 38/40/38 
f 3/3/3 6/6/6 39/41/39 37/39/37 
f 6/6/6 8/8/8 40/42/40 39/41/39 
f 8/8/8 10/10/10 41/43/41 40/42/40 
f 10/10/10 12/12/12 42/44/42 41/43/41 
f 12/16/12 14/15/14 43/45/43 42/46/42 
f 14/15/14 16/18/16 44/47/44 43/45/43 
f 16/18/16 18/20/18 45/48/45 44/47/44 
f 18/20/18 20/22/20 46/49/46 45/48/45 
f 20/22/20 22/24/22 47/50/47 46/49/46 
f 22/24/22 24/26/24 48/51/48 47/50/47 
f 24/26/24 26/28/26 49/52/49 48/51/48 
f 26/28/26 28/30/28 50/53/50 49/52/49 
f 28/30/28 30/32/30 51/54/51 50/53/50 
f 30/32/30 32/34/32 52/55/52 51/54/51 
f 32/34/32 34/36/34 53/56/53 52/55/52 
f 34/36/34 36/38/36 54/57/54 53/56/53 
f 36/38/36 4/4/4 38/40/38 54/57/54 
f 38/40/38 37/39/37 55/58/55 56/59/56 
f 37/39/37 39/41/39 57/60/57 55/58/55 
f 39/41/39 40/42/40 58/61/58 57/60/57 
f 40/42/40 41/43/41 59/62/59 58/61/58 
f 41/43/41 42/44/42 60/63/60 59/62/59 
f 42/46/42 43/45/43 61/64/61 60/65/60 
f 43/45/43 44/47/44 62/66/62 61/64/61 
f 44/47/44 45/48/45 63/67/63 62/66/62 
f 45/48/45 46/49/46 64/68/64 63/67/63 
f 46/49/46 47/50/47 65/69/65 64/68/64 
f 47/50/47 48/51/48 66/70/66 65/69/65 
f 48/51/48 49/52/49 67/71/67 66/70/66 
f 49/52/49 50/53/50 68/72/68 67/71/67 
f 50/53/50 51/54/51 69/73/69 68/72/68 
f 51/54/51 52/55/52 70/74/70 69/73/69 
f 52/55/52 53/56/53 71/75/71 70/74/70 
f 53/56/53 54/57/54 72/76/72 71/75/71 
f 54/57/54 38/40/38 56/59/56 72/76/72 
f 56/59/56 55/58/55 73/77/73 74/78/74 
f 55/58/55 57/60/57 75/79/75 73/77/73 
f 57/60/57 58/61/58 76/80/76 75/79/75 
f 58/61/58 59/62/59 77/81/77 76/80/76 
f 59/62/59 60/63/60 78/82/78 77/81/77 
f 60/65/60 61/64/61 79/83/79 78/84/78 
f 61/64/61 62/66/62 80/85/80 79/83/79 
f 62/66/62 63/67/63 81/86/81 80/85/80 
f 63/67/63 64/68/64 82/87/82 81/86/81 
f 64/68/64 65/69/65 83/88/83 82/87/82 
f 65/69/65 66/70/66 84/89/84 83/88/83 
f 66/70/66 67/71/67 85/90/85 84/89/84 
f 67/71/67 68/72/68 86/91/86 85/90/85 
f 68/72/68 69/73/69 87/92/87 86/91/86 
f 69/73/69 70/74/70 88/93/88 87/92/87 
f 70/74/70 71/75/71 89/94/89 88/93/88 
f 71/75/71 72/76/72 90/95/90 89/94/89 
f 72/76/72 56/59/56 74/78/74 90/95/90 
f 74/78/74 73/77/73 91/96/91 92/97/92 
f 73/77/73 75/79/75 93/98/93 91/96/91 
f 75/79/75 76/80/76 94/99/94 93/98/93 
f 76/80/76 77/81/77 95/100/95 94/99/94 
f 77/81/77 78/82/78 96/101/96 95/100/95 
f 78/84/78 79/83/79 97/102/97 96/103/96 
f 79/83/79 80/85/80 98/104/98 97/102/97 
f 80/85/80 81/86/81 99/105/99 98/104/98 
f 81/86/81 82/87/82 100/106/100 99/105/99 
f 82/87/82 83/88/83 101/107/101 100/106/100 
f 83/88/83 84/89/84 102/108/102 101/107/101 
f 84/89/84 85/90/85 103/109/103 102/108/102 
f 85/90/85 86/91/86 104/110/104 103/109/103 
f 86/91/86 87/92/87 105/111/105 104/110/104 
f 87/92/87 88/93/88 106/112/106 105/111/105 
f 88/93/88 89/94/89 107/113/107 106/112/106 
f 89/94/89 90/95/90 108/114/108 107/113/107 
f 90/95/90 74/78/74 92/97/92 108/114/108 
f 92/97/92 91/96/91 109/115/109 110/116/110 
f 91/96/91 93/98/93 111/117/111 109/115/109 
f 93/98/93 94/99/94 112/118/112 111/117/111 
f 94/99/94 95/100/95 113/119/113 112/118/112 
f 95/100/95 96/101/96 114/120/114 113/119/113 
f 96/103/96 97/102/97 115/121/115 114/122/114 
f 97/102/97 98/104/98 116/123/116 115/121/115 
f 98/104/98 99/105/99 117/124/117 116/123/116 
f 99/105/99 100/106/100 118/125/118 117/124/117 
f 100/106/100 101/107/101 119/126/119 118/125/118 
f 101/107/101 102/108/102 120/127/120 119/126/119 
f 102/108/102 103/109/103 121/128/121 120/127/120 
f 103/109/103 104/110/104 122/129/122 121/128/121 
f 104/110/104 105/111/105 123/130/123 122/129/122 
f 105/111/105 106/112/106 124/131/124 123/130/123 
f 106/112/106 107/113/107 125/132/125 124/131/124 
f 107/113/107 108/114/108 126/133/126 125/132/125 
f 108/114/108 92/97/92 110/116/110 126/133/126 
f 110/116/110 109/115/109 127/134/127 128/135/128 
f 109/115/109 111/117/111 129/136/129 127/134/127 
f 111/117/111 112/118/112 130/137/130 129/136/129 
f 112/118/112 113/119/113 131/138/131 130/137/130 
f 113/119/113 114/120/114 132/139/132 131/138/131 
f 114/122/114 115/121/115 133/140/133 132/141/132 
f 115/121/115 116/123/116 134/142/134 133/140/133 
f 116/123/116 117/124/117 135/143/135 134/142/134 
f 117/124/117 118/125/118 136/144/136 135/143/135 
f 118/125/118 119/126/119 137/145/137 136/144/136 
f 119/126/119 120/127/120 138/146/138 137/145/137 
f 120/127/120 121/128/121 139/147/139 138/146/138 
f 121/128/121 122/129/122 140/148/140 139/147/139 
f 122/129/122 123/130/123 141/149/141 140/148/140 
f 123/130/123 124/131/124 142/150/142 141/149/141 
f 124/131/124 125/132/125 143/151/143 142/150/142 
f 125/132/125 126/133/126 144/152/144 143/151/143 
f 126/133/126 110/116/110 128/135/128 144/152/144 
s 1
f 35/153/145 33/154/145 31/155/145 29/156/145 27/157/145 25/158/145 23/159/145 21/160/145 19/161/145 17/162/145 15/163/145 13/164/145 11/165/145 9/166/145 7/167/145 5/168/145 2/169/145 1/170/145 
f 128/171/146 127/172/147 129/173/146 130/174/147 131/175/147 132/176/147 133/177/148 134/178/147 135/179/146 136/180/147 137/181/146 138/182/147 139/183/147 140/184/147 141/185/147 142/186/147 143/187/147 144/188/147 
# 128 polygons

